<svg width="20" height="20" viewBox="0 0 20 20" fill="none" xmlns="http://www.w3.org/2000/svg">
<path d="M9.16675 9.16675V5.83341H10.8334V9.16675H14.1667V10.8334H10.8334V14.1667H9.16675V10.8334H5.83341V9.16675H9.16675ZM10.0001 18.3334C5.39771 18.3334 1.66675 14.6024 1.66675 10.0001C1.66675 5.39771 5.39771 1.66675 10.0001 1.66675C14.6024 1.66675 18.3334 5.39771 18.3334 10.0001C18.3334 14.6024 14.6024 18.3334 10.0001 18.3334ZM10.0001 16.6667C13.682 16.6667 16.6667 13.682 16.6667 10.0001C16.6667 6.31818 13.682 3.33341 10.0001 3.33341C6.31818 3.33341 3.33341 6.31818 3.33341 10.0001C3.33341 13.682 6.31818 16.6667 10.0001 16.6667Z" fill="white"/>
</svg>
