<svg width="16" height="16" viewBox="0 0 16 16" fill="none" xmlns="http://www.w3.org/2000/svg">
<path d="M5.99967 0.666748V2.00008H9.99967V0.666748H11.333V2.00008H13.9997C14.3679 2.00008 14.6663 2.29856 14.6663 2.66675V13.3334C14.6663 13.7016 14.3679 14.0001 13.9997 14.0001H1.99967C1.63149 14.0001 1.33301 13.7016 1.33301 13.3334V2.66675C1.33301 2.29856 1.63149 2.00008 1.99967 2.00008H4.66634V0.666748H5.99967ZM13.333 7.33341H2.66634V12.6667H13.333V7.33341ZM5.33301 8.66675V10.0001H3.99967V8.66675H5.33301ZM8.66634 8.66675V10.0001H7.33301V8.66675H8.66634ZM11.9997 8.66675V10.0001H10.6663V8.66675H11.9997ZM4.66634 3.33341H2.66634V6.00008H13.333V3.33341H11.333V4.66675H9.99967V3.33341H5.99967V4.66675H4.66634V3.33341Z" fill="#83C557"/>
<path d="M5.99967 0.666748V2.00008H9.99967V0.666748H11.333V2.00008H13.9997C14.3679 2.00008 14.6663 2.29856 14.6663 2.66675V13.3334C14.6663 13.7016 14.3679 14.0001 13.9997 14.0001H1.99967C1.63149 14.0001 1.33301 13.7016 1.33301 13.3334V2.66675C1.33301 2.29856 1.63149 2.00008 1.99967 2.00008H4.66634V0.666748H5.99967ZM13.333 7.33341H2.66634V12.6667H13.333V7.33341ZM5.33301 8.66675V10.0001H3.99967V8.66675H5.33301ZM8.66634 8.66675V10.0001H7.33301V8.66675H8.66634ZM11.9997 8.66675V10.0001H10.6663V8.66675H11.9997ZM4.66634 3.33341H2.66634V6.00008H13.333V3.33341H11.333V4.66675H9.99967V3.33341H5.99967V4.66675H4.66634V3.33341Z" fill="black" fill-opacity="0.2"/>
</svg>
