<svg width="20" height="20" viewBox="0 0 20 20" fill="none" xmlns="http://www.w3.org/2000/svg">
<path d="M3.33366 10.0001C3.33366 6.31818 6.31843 3.33341 10.0003 3.33341C13.6822 3.33341 16.667 6.31818 16.667 10.0001C16.667 13.682 13.6822 16.6667 10.0003 16.6667C6.31843 16.6667 3.33366 13.682 3.33366 10.0001ZM10.0003 1.66675C5.39795 1.66675 1.66699 5.39771 1.66699 10.0001C1.66699 14.6024 5.39795 18.3334 10.0003 18.3334C14.6027 18.3334 18.3337 14.6024 18.3337 10.0001C18.3337 5.39771 14.6027 1.66675 10.0003 1.66675ZM14.5479 7.88101L13.3694 6.70249L9.16699 10.9049L6.83958 8.5775L5.66107 9.756L9.16699 13.2619L14.5479 7.88101Z" fill="#34C759"/>
</svg>
