<svg width="24" height="24" viewBox="0 0 24 24" fill="none" xmlns="http://www.w3.org/2000/svg">
<g clip-path="url(#clip0_2334_6298)">
<path d="M21.6 21.6V4.79999H18V2.40002L12 0L6.00001 2.40002V4.80005H2.40002V21.6H0V24.0001H24V21.6H21.6ZM7.19999 19.2H4.79998V16.8H7.19999V19.2ZM7.19999 14.4H4.79998V12H7.19999V14.4ZM7.19999 9.60003H4.79998V7.20001H7.19999V9.60003ZM13.2 19.2H10.8V16.8H13.2V19.2ZM13.2 14.4H10.8V12H13.2V14.4ZM13.2 9.60003H10.8V7.20001H13.2V9.60003ZM19.2 19.2H16.7999V16.8H19.2V19.2ZM19.2 14.4H16.7999V12H19.2V14.4ZM19.2 9.60003H16.7999V7.20001H19.2V9.60003Z" fill="black"/>
</g>
<defs>
<clipPath id="clip0_2334_6298">
<rect width="24" height="24.0001" fill="white"/>
</clipPath>
</defs>
</svg>
