<?xml version="1.0" encoding="UTF-8"?>
<svg version="1.1" xmlns="http://www.w3.org/2000/svg" width="48" height="48">
<path d="M0 0 C0.66 0.33 1.32 0.66 2 1 C2.625 3.5625 2.625 3.5625 3 6 C3.33 6 3.66 6 4 6 C4 4.02 4 2.04 4 0 C5.875 0.3125 5.875 0.3125 8 1 C9.74627478 3.61941217 10.38722388 5.03824877 11 8 C11.53625 7.484375 12.0725 6.96875 12.625 6.4375 C15 5 15 5 18 5 C21.74968506 6.24989502 23.02671378 7.6059477 25 11 C24.5625 13.125 24.5625 13.125 24 15 C25.35405861 16.60411246 25.35405861 16.60411246 27 18 C27.495 19.485 27.495 19.485 28 21 C26.68 21.33 25.36 21.66 24 22 C24.44033187 27.19591612 24.88303339 30.66335081 28 35 C26.60517513 35.93899975 25.20908834 36.87612511 23.8125 37.8125 C22.64654297 38.59560547 22.64654297 38.59560547 21.45703125 39.39453125 C20.64621094 39.92433594 19.83539063 40.45414063 19 41 C17.86498047 41.83724609 17.86498047 41.83724609 16.70703125 42.69140625 C13.08344812 44.4430662 9.79990349 44.28943129 5.875 44.125 C0.36698982 43.88845744 0.36698982 43.88845744 -5 45 C-7.23786817 44.75754106 -9.46775934 44.43611971 -11.6875 44.0625 C-12.86699219 43.86785156 -14.04648438 43.67320313 -15.26171875 43.47265625 C-16.61716797 43.23869141 -16.61716797 43.23869141 -18 43 C-18 39.04 -18 35.08 -18 31 C-11.07 30.01 -11.07 30.01 -4 29 C-4 29.99 -4 30.98 -4 32 C-3.34 32 -2.68 32 -2 32 C-2 28.7 -2 25.4 -2 22 C-3.32 21.67 -4.64 21.34 -6 21 C-4.25 16.125 -4.25 16.125 -2 15 C-2.33 13.96875 -2.66 12.9375 -3 11.875 C-3.9715192 8.51573291 -4.17116771 5.50893798 -4 2 C-2.125 0.9375 -2.125 0.9375 0 0 Z M6 12 C6 12.99 6 13.98 6 15 C7.98 15 9.96 15 12 15 C11.34 14.67 10.68 14.34 10 14 C10 13.01 10 12.02 10 11 C7.9254644 10.8509288 7.9254644 10.8509288 6 12 Z " fill="#854E34" transform="translate(19,2)"/>
<path d="M0 0 C0.33 0.99 0.66 1.98 1 3 C1.928125 2.773125 2.85625 2.54625 3.8125 2.3125 C8.36703076 1.62326631 12.21793745 2.96033527 16.546875 4.30859375 C20.14826599 5.32363548 21.5961308 5.21482404 24.9375 3.4375 C28 2 28 2 30.3125 2.125 C32 3 32 3 33 6 C31.60517513 6.93899975 30.20908834 7.87612511 28.8125 8.8125 C28.03519531 9.33457031 27.25789063 9.85664062 26.45703125 10.39453125 C25.64621094 10.92433594 24.83539063 11.45414063 24 12 C23.24332031 12.55816406 22.48664062 13.11632813 21.70703125 13.69140625 C18.08344812 15.4430662 14.79990349 15.28943129 10.875 15.125 C5.36698982 14.88845744 5.36698982 14.88845744 0 16 C-2.23786817 15.75754106 -4.46775934 15.43611971 -6.6875 15.0625 C-7.86699219 14.86785156 -9.04648438 14.67320313 -10.26171875 14.47265625 C-11.16535156 14.31667969 -12.06898437 14.16070312 -13 14 C-13 10.04 -13 6.08 -13 2 C-8.71 1.34 -4.42 0.68 0 0 Z " fill="#F2B7A7" transform="translate(14,31)"/>
<path d="M0 0 C0.66 0 1.32 0 2 0 C2.22429688 0.64453125 2.44859375 1.2890625 2.6796875 1.953125 C3.82889456 4.24388852 3.82889456 4.24388852 6.3828125 4.609375 C7.28773437 4.65578125 8.19265625 4.7021875 9.125 4.75 C10.73375 4.8325 12.3425 4.915 14 5 C14.33 8.3 14.66 11.6 15 15 C6.67576907 20.23676003 6.67576907 20.23676003 2.87109375 19.69921875 C1.57103935 19.14505415 0.2887915 18.54732924 -0.97265625 17.91015625 C-4.507294 16.32331502 -8.16753188 16.29941157 -12 16 C-12 12.37 -12 8.74 -12 5 C-9.4609375 4.86979167 -6.921875 4.73958333 -4.3828125 4.609375 C-1.82889456 4.24388852 -1.82889456 4.24388852 -0.6796875 1.953125 C-0.34324219 0.98632812 -0.34324219 0.98632812 0 0 Z " fill="#A77A4F" transform="translate(29,18)"/>
<path d="M0 0 C1.06671952 3.20015856 0.94845472 4.88544294 0.5625 8.1875 C0.46066406 9.08855469 0.35882813 9.98960938 0.25390625 10.91796875 C0.17011719 11.60503906 0.08632812 12.29210938 0 13 C0.99 13.33 1.98 13.66 3 14 C-0.84330196 16.56220131 -2.23190677 15.91906612 -6.6875 15.125 C-7.86699219 14.92132813 -9.04648438 14.71765625 -10.26171875 14.5078125 C-11.61716797 14.25644531 -11.61716797 14.25644531 -13 14 C-13 10.04 -13 6.08 -13 2 C-8.71 1.34 -4.42 0.68 0 0 Z " fill="#0062D9" transform="translate(14,31)"/>
<path d="M0 0 C0.33 0 0.66 0 1 0 C1 5.61 1 11.22 1 17 C-3.29 16.67 -7.58 16.34 -12 16 C-12 12.37 -12 8.74 -12 5 C-9.4609375 4.86979167 -6.921875 4.73958333 -4.3828125 4.609375 C-1.82889456 4.24388852 -1.82889456 4.24388852 -0.6796875 1.953125 C-0.34324219 0.98632812 -0.34324219 0.98632812 0 0 Z " fill="#C3996B" transform="translate(29,18)"/>
<path d="M0 0 C0.66 0.33 1.32 0.66 2 1 C2.625 3.5625 2.625 3.5625 3 6 C3.33 6 3.66 6 4 6 C4 4.02 4 2.04 4 0 C5.875 0.3125 5.875 0.3125 8 1 C10.14915785 4.22373677 10.38286803 5.26703674 10 9 C8 11 8 11 6 12 C6 12.99 6 13.98 6 15 C4.02 15 2.04 15 0 15 C-0.33 14.01 -0.66 13.02 -1 12 C-1.515625 11.5875 -2.03125 11.175 -2.5625 10.75 C-4.8039884 8.02123151 -4.1923317 5.39786009 -4 2 C-2.125 0.9375 -2.125 0.9375 0 0 Z " fill="#CE800D" transform="translate(19,2)"/>
<path d="M0 0 C0.59554687 0.2784375 1.19109375 0.556875 1.8046875 0.84375 C2.1346875 1.83375 2.4646875 2.82375 2.8046875 3.84375 C-0.00607246 6.36302374 -2.70174321 8.37805714 -6.1953125 9.84375 C-10.15041413 9.52479019 -13.51822674 8.2740495 -17.1953125 6.84375 C-18.52309003 6.48893214 -19.85478375 6.14685324 -21.1953125 5.84375 C-21.1953125 5.18375 -21.1953125 4.52375 -21.1953125 3.84375 C-20.57785156 3.97394531 -19.96039062 4.10414062 -19.32421875 4.23828125 C-12.92706744 5.28013085 -9.53679509 4.57511061 -4.203125 0.875 C-2.1953125 -0.15625 -2.1953125 -0.15625 0 0 Z " fill="#D69B8B" transform="translate(44.1953125,33.15625)"/>
<path d="M0 0 C0.66 0.33 1.32 0.66 2 1 C2 1.99 2 2.98 2 4 C5.63 4 9.26 4 13 4 C12.3125 6.9375 12.3125 6.9375 10 10 C5.67424877 10.86842733 1.4040784 10.98743487 -3 11 C-3 8 -3 8 -2 5 C-1.34 4.67 -0.68 4.34 0 4 C0 2.68 0 1.36 0 0 Z " fill="#986F45" transform="translate(17,13)"/>
<path d="M0 0 C2.31 0 4.62 0 7 0 C7 3.96 7 7.92 7 12 C4.69 12 2.38 12 0 12 C0 8.04 0 4.08 0 0 Z " fill="#004EAC" transform="translate(1,33)"/>
<path d="M0 0 C0.845625 0.268125 1.69125 0.53625 2.5625 0.8125 C1.5625 3.8125 1.5625 3.8125 -0.5 5 C-1.139375 5.268125 -1.77875 5.53625 -2.4375 5.8125 C-2.4375 7.1325 -2.4375 8.4525 -2.4375 9.8125 C-5.4075 9.3175 -5.4075 9.3175 -8.4375 8.8125 C-8.4375 7.8225 -8.4375 6.8325 -8.4375 5.8125 C-9.0975 5.4825 -9.7575 5.1525 -10.4375 4.8125 C-4.52065098 -0.24658096 -4.52065098 -0.24658096 0 0 Z " fill="#C8181E" transform="translate(37.4375,7.1875)"/>
<path d="M0 0 C2 2 2 2 2 6 C1.34 6 0.68 6 0 6 C0 6.66 0 7.32 0 8 C-2.97 7.505 -2.97 7.505 -6 7 C-5.8125 5.1875 -5.8125 5.1875 -5 3 C-2.4375 1.25 -2.4375 1.25 0 0 Z " fill="#EC6A70" transform="translate(40,9)"/>
<path d="M0 0 C0.33 0 0.66 0 1 0 C1.33 2.31 1.66 4.62 2 7 C-2.95 9.475 -2.95 9.475 -8 12 C-8.99 11.01 -9.98 10.02 -11 9 C-9.3603125 8.62875 -9.3603125 8.62875 -7.6875 8.25 C-3.89469145 6.96430219 -2.86156036 6.41286067 -1 3 C-0.67 2.01 -0.34 1.02 0 0 Z " fill="#845938" transform="translate(42,26)"/>
<path d="M0 0 C1.52519276 0.08937803 3.04681929 0.24537146 4.5625 0.4375 C5.80193359 0.59025391 5.80193359 0.59025391 7.06640625 0.74609375 C7.70449219 0.82988281 8.34257813 0.91367187 9 1 C9 1.99 9 2.98 9 4 C1.25 3.25 1.25 3.25 -1 1 C-0.67 0.67 -0.34 0.34 0 0 Z " fill="#FDBDAC" transform="translate(24,35)"/>
<path d="M0 0 C0.33 1.65 0.66 3.3 1 5 C-1.97 4.505 -1.97 4.505 -5 4 C-5 3.01 -5 2.02 -5 1 C-5.66 0.67 -6.32 0.34 -7 0 C-4.3333581 -1.33332095 -2.83319697 -0.67102033 0 0 Z " fill="#BC1319" transform="translate(34,12)"/>
<path d="" fill="#000000" transform="translate(0,0)"/>
<path d="" fill="#000000" transform="translate(0,0)"/>
<path d="" fill="#000000" transform="translate(0,0)"/>
<path d="" fill="#000000" transform="translate(0,0)"/>
<path d="" fill="#000000" transform="translate(0,0)"/>
<path d="" fill="#000000" transform="translate(0,0)"/>
<path d="" fill="#000000" transform="translate(0,0)"/>
<path d="" fill="#000000" transform="translate(0,0)"/>
<path d="" fill="#000000" transform="translate(0,0)"/>
<path d="" fill="#000000" transform="translate(0,0)"/>
<path d="" fill="#000000" transform="translate(0,0)"/>
<path d="" fill="#000000" transform="translate(0,0)"/>
<path d="" fill="#000000" transform="translate(0,0)"/>
</svg>
