<svg width="20" height="20" viewBox="0 0 20 20" fill="none" xmlns="http://www.w3.org/2000/svg">
<path d="M14.167 4.99996H18.3337V6.66663H16.667V17.5C16.667 17.9602 16.2939 18.3333 15.8337 18.3333H4.16699C3.70676 18.3333 3.33366 17.9602 3.33366 17.5V6.66663H1.66699V4.99996H5.83366V2.49996C5.83366 2.03973 6.20676 1.66663 6.66699 1.66663H13.3337C13.7939 1.66663 14.167 2.03973 14.167 2.49996V4.99996ZM15.0003 6.66663H5.00033V16.6666H15.0003V6.66663ZM7.50033 9.16663H9.16699V14.1666H7.50033V9.16663ZM10.8337 9.16663H12.5003V14.1666H10.8337V9.16663ZM7.50033 3.33329V4.99996H12.5003V3.33329H7.50033Z" fill="#454545"/>
</svg>
