<svg width="29" height="24" viewBox="0 0 29 24" fill="none" xmlns="http://www.w3.org/2000/svg">
<g clip-path="url(#clip0_2667_5158)">
<path d="M20 8.58532V17.0731C20 18.439 18.8733 19.6097 17.4394 19.7073C15.2885 19.9024 12.3182 20 10.0648 20C7.81148 20 4.84117 19.8049 2.69025 19.7073C1.25631 19.6097 0.129639 18.439 0.129639 17.0731V8.58532L1.66601 9.36581L8.7333 13.0731C9.143 13.2683 9.65512 13.3658 10.0648 13.3658C10.4745 13.3658 10.9866 13.2683 11.3963 13.0731L18.4636 9.36581L20 8.58532Z" fill="#BDC3C6"/>
<path d="M19.8976 6.43903C19.8976 6.63415 19.7952 6.92683 19.5903 7.02439L18.3612 7.60976L10.577 11.7073C10.1673 11.9024 9.75758 11.9024 9.34788 11.7073L0.334517 7.02439C0.129668 6.92683 -0.075181 6.73171 0.0272435 6.53659C0.232093 5.36586 1.25634 4.39024 2.58786 4.29268C4.73877 4.09756 7.70908 4 9.96242 4C12.2158 4 15.2885 4.19512 17.337 4.29268C18.6685 4.39024 19.6928 5.26829 19.8976 6.43903Z" fill="#BDC3C6"/>
</g>
<path d="M28 0V24" stroke="#D6DCDF"/>
<defs>
<clipPath id="clip0_2667_5158">
<rect width="19.9999" height="19.9999" fill="white" transform="translate(0 2)"/>
</clipPath>
</defs>
</svg>
