<?xml version="1.0" encoding="UTF-8"?>
<svg version="1.1" xmlns="http://www.w3.org/2000/svg" width="48" height="48">
<path d="M0 0 C1.19568604 -0.00193359 1.19568604 -0.00193359 2.41552734 -0.00390625 C8.66851075 0.10800397 13.80967053 1.27793015 19.3125 4.375 C19.3125 5.035 19.3125 5.695 19.3125 6.375 C21.7875 6.87 21.7875 6.87 24.3125 7.375 C24.3125 17.275 24.3125 27.175 24.3125 37.375 C21.5189727 38.30617577 19.83461075 38.50142037 16.94873047 38.50439453 C16.07127167 38.50754669 15.19381287 38.51069885 14.2897644 38.51394653 C13.34593903 38.5119223 12.40211365 38.50989807 11.4296875 38.5078125 C9.97467331 38.50924759 9.97467331 38.50924759 8.49026489 38.51071167 C6.44093765 38.51139208 4.39160825 38.50954749 2.34228516 38.50537109 C-0.8070149 38.50000934 -3.95617308 38.50532674 -7.10546875 38.51171875 C-9.09375032 38.51105817 -11.08203179 38.50977743 -13.0703125 38.5078125 C-14.49212326 38.51084885 -14.49212326 38.51084885 -15.94265747 38.51394653 C-16.81381195 38.51079437 -17.68496643 38.50764221 -18.58251953 38.50439453 C-19.35290558 38.50359894 -20.12329163 38.50280334 -20.91702271 38.50198364 C-22.6875 38.375 -22.6875 38.375 -23.6875 37.375 C-23.77533542 35.15644736 -23.79444609 32.93511504 -23.78515625 30.71484375 C-23.7837413 30.05037735 -23.78232635 29.38591095 -23.78086853 28.7013092 C-23.77525518 26.57166101 -23.76270054 24.44211661 -23.75 22.3125 C-23.74498671 20.87174631 -23.74042351 19.43099097 -23.73632812 17.99023438 C-23.72528145 14.45178898 -23.70800792 10.91340461 -23.6875 7.375 C-22.0375 7.045 -20.3875 6.715 -18.6875 6.375 C-18.6875 5.715 -18.6875 5.055 -18.6875 4.375 C-17.02083333 3.70833333 -15.35416667 3.04166667 -13.6875 2.375 C-12.98367188 2.02953125 -12.27984375 1.6840625 -11.5546875 1.328125 C-7.6650584 0.03511478 -4.07502022 -0.00676492 0 0 Z " fill="#DF738C" transform="translate(23.6875,4.625)"/>
<path d="M0 0 C1.19568604 -0.00193359 1.19568604 -0.00193359 2.41552734 -0.00390625 C8.66851075 0.10800397 13.80967053 1.27793015 19.3125 4.375 C19.3125 5.035 19.3125 5.695 19.3125 6.375 C21.7875 6.87 21.7875 6.87 24.3125 7.375 C24.3125 17.275 24.3125 27.175 24.3125 37.375 C21.5189727 38.30617577 19.83461075 38.50142037 16.94873047 38.50439453 C16.07127167 38.50754669 15.19381287 38.51069885 14.2897644 38.51394653 C13.34593903 38.5119223 12.40211365 38.50989807 11.4296875 38.5078125 C9.97467331 38.50924759 9.97467331 38.50924759 8.49026489 38.51071167 C6.44093765 38.51139208 4.39160825 38.50954749 2.34228516 38.50537109 C-0.8070149 38.50000934 -3.95617308 38.50532674 -7.10546875 38.51171875 C-9.09375032 38.51105817 -11.08203179 38.50977743 -13.0703125 38.5078125 C-14.49212326 38.51084885 -14.49212326 38.51084885 -15.94265747 38.51394653 C-16.81381195 38.51079437 -17.68496643 38.50764221 -18.58251953 38.50439453 C-19.35290558 38.50359894 -20.12329163 38.50280334 -20.91702271 38.50198364 C-22.6875 38.375 -22.6875 38.375 -23.6875 37.375 C-23.77533542 35.15644736 -23.79444609 32.93511504 -23.78515625 30.71484375 C-23.7837413 30.05037735 -23.78232635 29.38591095 -23.78086853 28.7013092 C-23.77525518 26.57166101 -23.76270054 24.44211661 -23.75 22.3125 C-23.74498671 20.87174631 -23.74042351 19.43099097 -23.73632812 17.99023438 C-23.72528145 14.45178898 -23.70800792 10.91340461 -23.6875 7.375 C-22.0375 7.045 -20.3875 6.715 -18.6875 6.375 C-18.6875 5.715 -18.6875 5.055 -18.6875 4.375 C-17.02083333 3.70833333 -15.35416667 3.04166667 -13.6875 2.375 C-12.98367188 2.02953125 -12.27984375 1.6840625 -11.5546875 1.328125 C-7.6650584 0.03511478 -4.07502022 -0.00676492 0 0 Z M-22.6875 10.375 C-22.94006877 14.34775815 -22.87272451 18.33266175 -22.875 22.3125 C-22.88724609 23.43591797 -22.89949219 24.55933594 -22.91210938 25.71679688 C-22.91404297 26.78865234 -22.91597656 27.86050781 -22.91796875 28.96484375 C-22.92207764 29.95347412 -22.92618652 30.94210449 -22.93041992 31.96069336 C-22.92627244 34.55807091 -22.92627244 34.55807091 -20.6875 36.375 C-18.80450877 36.67961028 -18.80450877 36.67961028 -16.63671875 36.63378906 C-15.38532104 36.64324554 -15.38532104 36.64324554 -14.10864258 36.65289307 C-13.20654053 36.6488446 -12.30443848 36.64479614 -11.375 36.640625 C-10.45033936 36.64253845 -9.52567871 36.6444519 -8.57299805 36.64642334 C-6.61604541 36.64778566 -4.65908376 36.64408596 -2.70214844 36.63574219 C0.3003359 36.62504334 3.30222187 36.63563591 6.3046875 36.6484375 C8.20312633 36.64711591 10.10156478 36.64455354 12 36.640625 C13.35315308 36.64669769 13.35315308 36.64669769 14.73364258 36.65289307 C15.98504028 36.64343658 15.98504028 36.64343658 17.26171875 36.63378906 C17.99737061 36.63219788 18.73302246 36.63060669 19.4909668 36.62896729 C21.56264214 36.52665031 21.56264214 36.52665031 23.3125 34.375 C23.60708759 31.86830184 23.60708759 31.86830184 23.54296875 28.96484375 C23.54103516 27.89298828 23.53910156 26.82113281 23.53710938 25.71679688 C23.52486328 24.59337891 23.51261719 23.46996094 23.5 22.3125 C23.49935547 21.18521484 23.49871094 20.05792969 23.49804688 18.89648438 C23.96130879 13.77850331 23.96130879 13.77850331 22.3125 9.375 C18.89112222 9.14755113 18.89112222 9.14755113 15.3125 10.375 C13.08425175 13.31165087 11.3125 16.63865644 11.3125 20.375 C4.0525 20.375 -3.2075 20.375 -10.6875 20.375 C-11.6775 17.405 -12.6675 14.435 -13.6875 11.375 C-16.32321976 9.61785349 -19.96430928 7.65180928 -22.6875 10.375 Z " fill="#010000" transform="translate(23.6875,4.625)"/>
<path d="M0 0 C3.6875 1.0625 3.6875 1.0625 5.0390625 2.84375 C7.6875 8.10251799 7.6875 8.10251799 7.6875 11.0625 C8.3475 11.0625 9.0075 11.0625 9.6875 11.0625 C9.6875 11.7225 9.6875 12.3825 9.6875 13.0625 C12.3275 13.0625 14.9675 13.0625 17.6875 13.0625 C17.6875 13.7225 17.6875 14.3825 17.6875 15.0625 C19.0075 15.0625 20.3275 15.0625 21.6875 15.0625 C21.6875 15.7225 21.6875 16.3825 21.6875 17.0625 C19.08661378 19.66338622 17.86612887 19.36212225 14.2421875 19.4765625 C13.16582031 19.51523437 12.08945312 19.55390625 10.98046875 19.59375 C9.28857422 19.64015625 9.28857422 19.64015625 7.5625 19.6875 C6.42683594 19.72617187 5.29117187 19.76484375 4.12109375 19.8046875 C1.31006044 19.89917601 -1.50096233 19.98473541 -4.3125 20.0625 C-4.34138514 16.91668577 -4.35925923 13.77090531 -4.375 10.625 C-4.38337891 9.72716797 -4.39175781 8.82933594 -4.40039062 7.90429688 C-4.40361328 7.05029297 -4.40683594 6.19628906 -4.41015625 5.31640625 C-4.41801147 4.13026733 -4.41801147 4.13026733 -4.42602539 2.92016602 C-4.22306878 -0.40090254 -3.40634196 0.0642706 0 0 Z " fill="#D66E85" transform="translate(5.3125,13.9375)"/>
<path d="M0 0 C15.18 0 30.36 0 46 0 C45 5 45 5 44 6 C40.92088341 6.11360293 37.86504534 6.16419105 34.78515625 6.16796875 C33.85908066 6.17129715 32.93300507 6.17462555 31.97886658 6.17805481 C30.01594542 6.18312808 28.0530156 6.18546301 26.09008789 6.18530273 C23.07879489 6.18748817 20.06786866 6.20563674 17.05664062 6.22460938 C15.15364709 6.22754336 13.25065181 6.22952812 11.34765625 6.23046875 C9.98979759 6.24124702 9.98979759 6.24124702 8.60450745 6.25224304 C7.76701462 6.24916641 6.92952179 6.24608978 6.06665039 6.24291992 C4.9586483 6.24505745 4.9586483 6.24505745 3.82826233 6.24723816 C2 6 2 6 0 4 C0 2.68 0 1.36 0 0 Z " fill="#DCCF74" transform="translate(1,35)"/>
<path d="M0 0 C0.66 0.99 1.32 1.98 2 3 C-2.39453125 7.00390625 -2.39453125 7.00390625 -4 8 C-4.99 7.67 -5.98 7.34 -7 7 C-9.65693998 6.903384 -12.28140855 6.86073272 -14.9375 6.875 C-15.65357422 6.87113281 -16.36964844 6.86726563 -17.10742188 6.86328125 C-20.54178156 6.86964707 -23.71864926 6.92049558 -27 8 C-28.65 6.02 -30.3 4.04 -32 2 C-22.8654788 -4.43568539 -10.11495417 -5.62456261 0 0 Z " fill="#DF7089" transform="translate(39,10)"/>
<path d="M0 0 C1.01964844 -0.01417969 2.03929687 -0.02835938 3.08984375 -0.04296875 C6.13409667 0.19305086 8.30987643 0.90497005 11.0625 2.1875 C10.6875 4.625 10.6875 4.625 10.0625 7.1875 C6.91739907 8.76005046 3.57484555 8.41322668 0.125 8.4375 C-0.60396484 8.458125 -1.33292969 8.47875 -2.08398438 8.5 C-7.42149789 8.5391385 -7.42149789 8.5391385 -9.9609375 6.80859375 C-10.9375 5.1875 -10.9375 5.1875 -10.625 3 C-10.398125 2.401875 -10.17125 1.80375 -9.9375 1.1875 C-6.58649517 0.18300215 -3.49105702 0.02201171 0 0 Z " fill="#E7E7E8" transform="translate(23.9375,16.8125)"/>
<path d="M0 0 C0.66 0.33 1.32 0.66 2 1 C2 1.66 2 2.32 2 3 C-0.64 3.99 -3.28 4.98 -6 6 C-6.2284549 8.24362573 -6.2284549 8.24362573 -4 10.125 C-3.34 10.74375 -2.68 11.3625 -2 12 C-1.01 11.67 -0.02 11.34 1 11 C3.65549 10.92899759 6.28338675 10.90661059 8.9375 10.9375 C9.65357422 10.94201172 10.36964844 10.94652344 11.10742188 10.95117188 C13.07164068 10.96391472 15.03582458 10.98175688 17 11 C20.76687864 11 21.91190305 10.76462683 25 9 C24.21619539 10.81591374 23.42271553 12.62765407 22.625 14.4375 C22.18414062 15.44683594 21.74328125 16.45617187 21.2890625 17.49609375 C20 20 20 20 18 21 C15.0270759 21.26151272 12.0456726 21.23142772 9.0625 21.25 C8.23814453 21.270625 7.41378906 21.29125 6.56445312 21.3125 C5.77103516 21.31765625 4.97761719 21.3228125 4.16015625 21.328125 C3.07166382 21.34214355 3.07166382 21.34214355 1.96118164 21.35644531 C-0.5985829 20.89120739 -1.42356163 20.04040588 -3 18 C-3.4125 16.80375 -3.825 15.6075 -4.25 14.375 C-4.8275 13.26125 -5.405 12.1475 -6 11 C-9.5082547 10.01047282 -9.5082547 10.01047282 -13 10 C-13.66 9.67 -14.32 9.34 -15 9 C-14.67 8.01 -14.34 7.02 -14 6 C-12.67203709 5.64587656 -11.33783393 5.31478446 -10 5 C-9.525625 4.505 -9.05125 4.01 -8.5625 3.5 C-6.50539959 1.52518361 -4.77307129 1.42662635 -2 1 C-1.34 0.67 -0.68 0.34 0 0 Z M-2 14 C-1.42655063 16.86724686 -1.1385485 17.8614515 1 20 C3.69162425 20.22552238 6.24669744 20.3243329 8.9375 20.3125 C10.03094727 20.33666992 10.03094727 20.33666992 11.14648438 20.36132812 C15.33051089 20.37627196 15.33051089 20.37627196 19.0234375 18.6171875 C20.23490429 16.99643464 20.23490429 16.99643464 19.6875 14.8125 C19.460625 14.214375 19.23375 13.61625 19 13 C15.64899517 11.99550215 12.55355702 11.83451171 9.0625 11.8125 C8.04285156 11.79832031 7.02320313 11.78414062 5.97265625 11.76953125 C2.92840333 12.00555086 0.75262357 12.71747005 -2 14 Z " fill="#140C0E" transform="translate(15,5)"/>
<path d="M0 0 C9.30879863 -0.44682233 16.56884314 -0.44371561 25 4 C25 4.66 25 5.32 25 6 C27.475 6.495 27.475 6.495 30 7 C30 7.99 30 8.98 30 10 C27.36 10 24.72 10 22 10 C21.91234375 9.37480469 21.8246875 8.74960938 21.734375 8.10546875 C21.21029536 5.89864186 21.21029536 5.89864186 19.390625 4.98828125 C12.65763885 2.86272176 6.03470884 2.31531152 -1 2 C-0.67 1.34 -0.34 0.68 0 0 Z " fill="#0A0406" transform="translate(18,5)"/>
<path d="M0 0 C0.66 0.33 1.32 0.66 2 1 C1.625 3.4375 1.625 3.4375 1 6 C-2.18824568 7.59412284 -5.62896662 7.10174735 -9.125 7.0625 C-9.87910156 7.05798828 -10.63320313 7.05347656 -11.41015625 7.04882812 C-13.27347127 7.03703499 -15.13674555 7.01909942 -17 7 C-17 6.01 -17 5.02 -17 4 C-11.39 4 -5.78 4 0 4 C0 2.68 0 1.36 0 0 Z " fill="#BBBBBF" transform="translate(33,18)"/>
<path d="M0 0 C0.66 0 1.32 0 2 0 C2 6.6 2 13.2 2 20 C1.01 20 0.02 20 -1 20 C-1.02888514 16.85418577 -1.04675923 13.70840531 -1.0625 10.5625 C-1.07087891 9.66466797 -1.07925781 8.76683594 -1.08789062 7.84179688 C-1.09111328 6.98779297 -1.09433594 6.13378906 -1.09765625 5.25390625 C-1.10551147 4.06776733 -1.10551147 4.06776733 -1.11352539 2.85766602 C-1 1 -1 1 0 0 Z " fill="#C44966" transform="translate(2,14)"/>
<path d="M0 0 C2.62187494 1.04874998 3.79371361 1.64931313 5.25 4.125 C5.4975 4.74375 5.745 5.3625 6 6 C5.01 6.495 5.01 6.495 4 7 C2.35 5.02 0.7 3.04 -1 1 C-0.67 0.67 -0.34 0.34 0 0 Z " fill="#E14F73" transform="translate(8,11)"/>
<path d="" fill="#000000" transform="translate(0,0)"/>
<path d="" fill="#000000" transform="translate(0,0)"/>
</svg>
