<?xml version="1.0" encoding="UTF-8"?>
<svg version="1.1" xmlns="http://www.w3.org/2000/svg" width="48" height="48">
<path d="M0 0 C1.9375 0.8125 1.9375 0.8125 4 2 C5 5 5 5 4.28735352 6.82177734 C3.71392212 7.81878662 3.71392212 7.81878662 3.12890625 8.8359375 C2.71962891 9.57070312 2.31035156 10.30546875 1.88867188 11.0625 C1.0088955 12.59660196 0.12869137 14.13045871 -0.75195312 15.6640625 C-3.82661981 20.98152807 -3.82661981 20.98152807 -4 27 C-3.67 27.66 -3.34 28.32 -3 29 C-3.08651631 30.54613014 -3.24002636 32.08909387 -3.4375 33.625 C-3.53933594 34.44226562 -3.64117188 35.25953125 -3.74609375 36.1015625 C-3.87177734 37.04128906 -3.87177734 37.04128906 -4 38 C-3.39671875 37.81566406 -2.7934375 37.63132813 -2.171875 37.44140625 C0.73454765 36.85071244 2.3697768 37.75795015 5 39 C4.40138258 41.35171131 3.73075648 43.6859378 3 46 C0.53721199 47.231394 -1.2795055 47.07159196 -4 47 C-4 45.02 -4 43.04 -4 41 C-4.763125 41.804375 -5.52625 42.60875 -6.3125 43.4375 C-10.66065846 47.58341854 -14.60644915 47.28282867 -20.33984375 47.21484375 C-25.04105626 46.83515698 -27.10415832 44.94561066 -30.25 41.625 C-32.69450582 37.95824127 -33.23789864 35.52934842 -32.5625 31.1875 C-32.376875 30.465625 -32.19125 29.74375 -32 29 C-31.40832031 28.96261719 -30.81664062 28.92523437 -30.20703125 28.88671875 C-25.46387522 28.49210055 -21.8343305 28.09220202 -18 25 C-18 24.34 -18 23.68 -18 23 C-16.96875 22.566875 -15.9375 22.13375 -14.875 21.6875 C-8.65683607 18.1684985 -5.98143355 10.94430065 -3.8125 4.4375 C-3 2 -3 2 0 0 Z " fill="#3D2923" transform="translate(34,0)"/>
<path d="M0 0 C0.76441406 0.28359375 1.52882813 0.5671875 2.31640625 0.859375 C3.07824219 1.13265625 3.84007813 1.4059375 4.625 1.6875 C6.77081347 2.56516374 8.82222676 3.54121344 10.87890625 4.609375 C9.58842717 12.70882921 9.58842717 12.70882921 7.25390625 15.671875 C3.7095944 17.07094547 0.67508634 16.799184 -3.12109375 16.609375 C-2.19296875 15.92875 -2.19296875 15.92875 -1.24609375 15.234375 C0.93810458 13.63828581 0.93810458 13.63828581 2.87890625 11.609375 C2.19828125 12.125 1.51765625 12.640625 0.81640625 13.171875 C-2.98151481 15.03043212 -5.08244343 14.67618829 -9.12109375 13.609375 C-9.78109375 12.619375 -10.44109375 11.629375 -11.12109375 10.609375 C-10.02796875 10.3 -8.93484375 9.990625 -7.80859375 9.671875 C-5.56701381 9.02599603 -3.33415865 8.3470633 -1.12109375 7.609375 C-1.12109375 6.619375 -1.12109375 5.629375 -1.12109375 4.609375 C-1.63671875 5.269375 -2.15234375 5.929375 -2.68359375 6.609375 C-5.9210513 9.26575043 -8.04661656 8.92279632 -12.12109375 8.609375 C-12.78109375 6.629375 -13.44109375 4.649375 -14.12109375 2.609375 C-13.50621094 2.56039063 -12.89132813 2.51140625 -12.2578125 2.4609375 C-11.44957031 2.38617187 -10.64132813 2.31140625 -9.80859375 2.234375 C-9.00808594 2.16476563 -8.20757812 2.09515625 -7.3828125 2.0234375 C-4.342942 1.46691544 -3.11492744 -0.57365146 0 0 Z " fill="#F9DF5C" transform="translate(17.12109375,28.390625)"/>
<path d="M0 0 C2.0625 0.4375 2.0625 0.4375 4 1 C2.0373772 3.04795423 0.5722693 3.94976638 -2.26953125 4.19921875 C-4.51954383 4.18858877 -6.75385562 4.12958525 -9 4 C-8.34 5.65 -7.68 7.3 -7 9 C-1.91696314 9.11320856 -1.91696314 9.11320856 3 8 C3.33 7.01 3.66 6.02 4 5 C4.33 5.66 4.66 6.32 5 7 C1.98112756 10.48331435 -0.56909529 11.79157144 -5 13 C-2.14080976 15.32911899 -2.14080976 15.32911899 1.3125 14.875 C5.48775725 13.88426099 7.62018343 12.55547107 11 10 C9.54744301 13.82946843 7.57104439 15.12050295 4 17 C7.93774177 17.36630156 9.56539771 17.30233203 12.875 15 C13.57625 14.34 14.2775 13.68 15 13 C15.66 13.66 16.32 14.32 17 15 C13.94719141 18.26334712 12.05509929 19.83457405 7.4765625 20.203125 C-2.17453399 20.36177316 -2.17453399 20.36177316 -6 17 C-9.02636233 13.80550643 -10.66804123 11.42611699 -11 7 C-10.5625 4.1875 -10.5625 4.1875 -10 2 C-9.04287109 1.90912109 -9.04287109 1.90912109 -8.06640625 1.81640625 C-6.82697266 1.69072266 -6.82697266 1.69072266 -5.5625 1.5625 C-4.73878906 1.48128906 -3.91507813 1.40007813 -3.06640625 1.31640625 C-1.01337975 1.21069185 -1.01337975 1.21069185 0 0 Z " fill="#432D27" transform="translate(12,27)"/>
<path d="M0 0 C9.63157895 1.73684211 9.63157895 1.73684211 13 5 C13.41684761 8.04244621 13.28777202 10.9496166 13 14 C13.60328125 13.81566406 14.2065625 13.63132812 14.828125 13.44140625 C17.73454765 12.85071244 19.3697768 13.75795015 22 15 C21.40138258 17.35171131 20.73075648 19.6859378 20 22 C17.53721199 23.231394 15.7204945 23.07159196 13 23 C13 21.02 13 19.04 13 17 C12.01 17 11.02 17 10 17 C10.33 14.36 10.66 11.72 11 9 C10.39671875 8.82984375 9.7934375 8.6596875 9.171875 8.484375 C4.48936628 7.06451752 1.14688851 5.96781594 -2 2 C-1.34 1.34 -0.68 0.68 0 0 Z " fill="#4E332C" transform="translate(17,24)"/>
<path d="M0 0 C-0.33533277 3.01799494 -0.86565598 4.80881813 -2.625 7.3125 C-5.83284572 9.5917588 -8.15720211 9.29559984 -12 9 C-12.66 7.02 -13.32 5.04 -14 3 C-13.38511719 2.95101563 -12.77023438 2.90203125 -12.13671875 2.8515625 C-11.32847656 2.77679687 -10.52023438 2.70203125 -9.6875 2.625 C-8.88699219 2.55539063 -8.08648437 2.48578125 -7.26171875 2.4140625 C-4.40085313 1.89031163 -2.90947141 0 0 0 Z " fill="#F7DD5C" transform="translate(17,28)"/>
<path d="M0 0 C0 2.64 0 5.28 0 8 C-1.6875 9.125 -1.6875 9.125 -4 10 C-6.75 9.125 -6.75 9.125 -9 8 C-9.22223194 5.25913944 -9.34781139 3.56036279 -7.875 1.1875 C-5.22464043 -0.49106106 -3.06753576 -0.20450238 0 0 Z " fill="#3A2720" transform="translate(9,13)"/>
<path d="M0 0 C2.625 0.375 2.625 0.375 4.5 2.5625 C5.76867764 5.73419409 5.63334883 7.16661737 4.625 10.375 C1.75 10.5 1.75 10.5 -1.375 10.375 C-3.375 8.375 -3.375 8.375 -3.5625 4.8125 C-3.32866795 0.52557915 -3.32866795 0.52557915 0 0 Z " fill="#6C4620" transform="translate(42.375,26.625)"/>
<path d="M0 0 C1.9375 0.8125 1.9375 0.8125 4 2 C4.33 2.99 4.66 3.98 5 5 C4.67 5.66 4.34 6.32 4 7 C3.01 6.67 2.02 6.34 1 6 C0.67 5.34 0.34 4.68 0 4 C-2.64 9.28 -5.28 14.56 -8 20 C-8.99 19.67 -9.98 19.34 -11 19 C-10.59007813 18.27554687 -10.18015625 17.55109375 -9.7578125 16.8046875 C-6.38839797 10.80170456 -6.38839797 10.80170456 -3.8125 4.4375 C-3 2 -3 2 0 0 Z " fill="#362420" transform="translate(34,0)"/>
<path d="M0 0 C-0.59861742 2.35171131 -1.26924352 4.6859378 -2 7 C-4.46278801 8.231394 -6.2795055 8.07159196 -9 8 C-9 5 -9 2 -9 -1 C-5.79937313 -2.60031344 -3.27728194 -1.03173691 0 0 Z " fill="#523620" transform="translate(39,39)"/>
<path d="M0 0 C2.00720923 0.28674418 4.0085944 0.61866701 6 1 C7.09658936 4.28976808 6.79953138 5.71303767 6 9 C4.35 9.33 2.7 9.66 1 10 C-0.5625 8.3125 -0.5625 8.3125 -2 6 C-1.58974359 1.58974359 -1.58974359 1.58974359 0 0 Z " fill="#583922" transform="translate(17,5)"/>
<path d="M0 0 C0.66 0.66 1.32 1.32 2 2 C1.59104492 2.74890503 1.59104492 2.74890503 1.17382812 3.51293945 C-0.05726849 5.77600018 -1.27871213 8.04413199 -2.5 10.3125 C-2.92925781 11.09818359 -3.35851563 11.88386719 -3.80078125 12.69335938 C-4.40986328 13.8293457 -4.40986328 13.8293457 -5.03125 14.98828125 C-5.40830078 15.68477783 -5.78535156 16.38127441 -6.17382812 17.09887695 C-7.19928123 19.11309071 -7.19928123 19.11309071 -7 22 C-8.65 21.67 -10.3 21.34 -12 21 C-12 20.01 -12 19.02 -12 18 C-11.07622559 17.61932373 -11.07622559 17.61932373 -10.13378906 17.23095703 C-7.67051683 15.80992516 -7.06621955 14.83906105 -5.859375 12.3046875 C-5.51132812 11.58925781 -5.16328125 10.87382812 -4.8046875 10.13671875 C-4.45664062 9.39035156 -4.10859375 8.64398438 -3.75 7.875 C-3.38648438 7.12089844 -3.02296875 6.36679688 -2.6484375 5.58984375 C-1.75468731 3.73178414 -0.87587625 1.86655182 0 0 Z " fill="#B57C64" transform="translate(34,3)"/>
<path d="M0 0 C3.80909895 0.32417863 5.78372163 0.85581442 9 3 C9 3.99 9 4.98 9 6 C4.87248551 5.39301257 1.6678852 3.96189209 -2 2 C-1.34 1.34 -0.68 0.68 0 0 Z " fill="#E8961D" transform="translate(19,25)"/>
<path d="M0 0 C1.2684375 0.12375 1.2684375 0.12375 2.5625 0.25 C3.2225 1.24 3.8825 2.23 4.5625 3.25 C1.5625 4.25 1.5625 4.25 -1.4375 3.25 C-1.4375 4.24 -1.4375 5.23 -1.4375 6.25 C-0.7775 6.58 -0.1175 6.91 0.5625 7.25 C0.2325 8.24 -0.0975 9.23 -0.4375 10.25 C-1.4275 9.59 -2.4175 8.93 -3.4375 8.25 C-3.6875 4.6875 -3.6875 4.6875 -3.4375 1.25 C-2.4375 0.25 -2.4375 0.25 0 0 Z " fill="#2E1F1D" transform="translate(42.4375,26.75)"/>
<path d="M0 0 C0.33 0.66 0.66 1.32 1 2 C-2.85623679 6.82029598 -2.85623679 6.82029598 -6.11328125 7.33203125 C-8.07856214 7.3145776 -10.04166127 7.16596091 -12 7 C-9.77960908 5.10855588 -8.33274086 4.06492505 -5.4375 3.5 C-2.67631549 2.93360318 -1.76438662 2.13583643 0 0 Z " fill="#CF9046" transform="translate(26,38)"/>
<path d="M0 0 C1.9375 0.8125 1.9375 0.8125 4 2 C4.33 2.99 4.66 3.98 5 5 C4.67 5.66 4.34 6.32 4 7 C3.01 6.67 2.02 6.34 1 6 C0.67 5.34 0.34 4.68 0 4 C-0.99 3.34 -1.98 2.68 -3 2 C-2.01 1.34 -1.02 0.68 0 0 Z " fill="#291B18" transform="translate(34,0)"/>
<path d="M0 0 C0.99 0 1.98 0 3 0 C2.49396008 2.16874252 2.00016187 3.99967627 1 6 C0.01 6 -0.98 6 -2 6 C-1.125 1.125 -1.125 1.125 0 0 Z " fill="#956125" transform="translate(4,16)"/>
<path d="M0 0 C0.66 0.33 1.32 0.66 2 1 C1.67 1.99 1.34 2.98 1 4 C2.32 4.66 3.64 5.32 5 6 C1.7 5.34 -1.6 4.68 -5 4 C-3.35 2.68 -1.7 1.36 0 0 Z " fill="#271A1C" transform="translate(21,20)"/>
<path d="M0 0 C0.66 0 1.32 0 2 0 C2 2.64 2 5.28 2 8 C0.02 8.99 0.02 8.99 -2 10 C-1.855625 9.46375 -1.71125 8.9275 -1.5625 8.375 C-0.90546252 5.60084173 -0.44780052 2.81474612 0 0 Z " fill="#211718" transform="translate(7,13)"/>
<path d="M0 0 C2.86724686 0.57344937 3.8614515 0.8614515 6 3 C5.01 4.32 4.02 5.64 3 7 C-0 2.25 -0 2.25 0 0 Z " fill="#2F1E1E" transform="translate(1,35)"/>
<path d="M0 0 C3.14737182 0.69941596 6.02588876 1.76078698 9 3 C9 3.33 9 3.66 9 4 C5.625 3.6875 5.625 3.6875 2 3 C1.34 2.01 0.68 1.02 0 0 Z " fill="#D39347" transform="translate(6,39)"/>
<path d="" fill="#000000" transform="translate(0,0)"/>
<path d="" fill="#000000" transform="translate(0,0)"/>
<path d="" fill="#000000" transform="translate(0,0)"/>
<path d="" fill="#000000" transform="translate(0,0)"/>
<path d="" fill="#000000" transform="translate(0,0)"/>
<path d="" fill="#000000" transform="translate(0,0)"/>
<path d="" fill="#000000" transform="translate(0,0)"/>
<path d="" fill="#000000" transform="translate(0,0)"/>
<path d="" fill="#000000" transform="translate(0,0)"/>
<path d="" fill="#000000" transform="translate(0,0)"/>
<path d="" fill="#000000" transform="translate(0,0)"/>
<path d="" fill="#000000" transform="translate(0,0)"/>
</svg>
