<?xml version="1.0" encoding="UTF-8"?>
<svg version="1.1" xmlns="http://www.w3.org/2000/svg" width="48" height="48">
<path d="M0 0 C3.73449838 -0.20747213 5.72294483 0.31274297 9 2 C10.45008578 2.50357524 11.9090171 2.98227373 13.375 3.4375 C17.11166983 4.6480575 20.53340138 6.13336997 24 8 C24.66 7.34 25.32 6.68 26 6 C28.6796875 5.62890625 28.6796875 5.62890625 31.875 5.5625 C33.44894531 5.50255859 33.44894531 5.50255859 35.0546875 5.44140625 C38 6 38 6 40.328125 8.125 C42.24444897 11.42036085 42.65181013 13.64773598 42.875 17.4375 C42.95492187 18.52933594 43.03484375 19.62117188 43.1171875 20.74609375 C42.99295324 24.19566495 42.19495187 26.7810405 41 30 C41 30.66 41 31.32 41 32 C41.48984375 32.40992188 41.9796875 32.81984375 42.484375 33.2421875 C44.69750867 35.80896624 44.33019812 37.79677818 44.25 41.125 C44.23453125 42.20007812 44.2190625 43.27515625 44.203125 44.3828125 C44 47 44 47 43 48 C41.07332493 48.08748207 39.14348139 48.10697334 37.21484375 48.09765625 C36.04501953 48.09443359 34.87519531 48.09121094 33.66992188 48.08789062 C32.43822266 48.07951172 31.20652344 48.07113281 29.9375 48.0625 C28.08415039 48.05573242 28.08415039 48.05573242 26.19335938 48.04882812 C23.12885883 48.03699608 20.06445279 48.02051173 17 48 C17.75 35.25 17.75 35.25 20 33 C20.45375 32.46375 20.9075 31.9275 21.375 31.375 C23 30 23 30 27 30 C26.34 29.34 25.68 28.68 25 28 C24.34 27.01 23.68 26.02 23 25 C22.01 24.67 21.02 24.34 20 24 C20 25.65 20 27.3 20 29 C12.41 29 4.82 29 -3 29 C-3 24 -3 24 -2 23 C-1.92794489 21.31391034 -1.91613932 19.62499341 -1.9375 17.9375 C-1.95103516 16.55884766 -1.95103516 16.55884766 -1.96484375 15.15234375 C-1.97644531 14.44207031 -1.98804688 13.73179688 -2 13 C-2.66 13 -3.32 13 -4 13 C-3.74438677 10.6568787 -3.40729228 8.32156597 -3 6 C-2.34 5.67 -1.68 5.34 -1 5 C-0.34444881 2.47266765 -0.34444881 2.47266765 0 0 Z M21 9 C21.33 9.99 21.66 10.98 22 12 C22.33 11.01 22.66 10.02 23 9 C22.34 9 21.68 9 21 9 Z M19 12 C17.74050951 13.03406673 17.74050951 13.03406673 17.90234375 15.28515625 C17.91394531 16.20167969 17.92554687 17.11820313 17.9375 18.0625 C17.94652344 18.98160156 17.95554687 19.90070312 17.96484375 20.84765625 C17.97644531 21.55792969 17.98804687 22.26820312 18 23 C18.66 22.67 19.32 22.34 20 22 C20.46651207 19.87423218 20.46651207 19.87423218 20.625 17.4375 C20.69976563 16.61121094 20.77453125 15.78492188 20.8515625 14.93359375 C20.90054687 14.29550781 20.94953125 13.65742188 21 13 C20.34 12.67 19.68 12.34 19 12 Z " fill="#010000" transform="translate(4,0)"/>
<path d="M0 0 C2.3125 0.1875 2.3125 0.1875 5 1 C8.87359817 6.22093666 9.0342494 11.67242345 9 18 C8.0625 21.625 8.0625 21.625 7 24 C7 24.66 7 25.32 7 26 C7.48984375 26.40992187 7.9796875 26.81984375 8.484375 27.2421875 C10.69750867 29.80896624 10.33019812 31.79677818 10.25 35.125 C10.23453125 36.20007812 10.2190625 37.27515625 10.203125 38.3828125 C10 41 10 41 9 42 C7.07332493 42.08748207 5.14348139 42.10697334 3.21484375 42.09765625 C1.46010742 42.09282227 1.46010742 42.09282227 -0.33007812 42.08789062 C-2.17762695 42.07532227 -2.17762695 42.07532227 -4.0625 42.0625 C-5.91584961 42.05573242 -5.91584961 42.05573242 -7.80664062 42.04882812 C-10.87114117 42.03699608 -13.93554721 42.02051173 -17 42 C-16.25 29.25 -16.25 29.25 -14 27 C-13.54625 26.46375 -13.0925 25.9275 -12.625 25.375 C-11 24 -11 24 -7 24 C-7.66 23.34 -8.32 22.68 -9 22 C-9.66 21.01 -10.32 20.02 -11 19 C-10.67 18.34 -10.34 17.68 -10 17 C-10.66 17 -11.32 17 -12 17 C-12 16.01 -12 15.02 -12 14 C-11.01 14 -10.02 14 -9 14 C-9 12.68 -9 11.36 -9 10 C-5.37 9.01 -1.74 8.02 2 7 C3 8 3 8 3.0625 11.0625 C3.041875 12.031875 3.02125 13.00125 3 14 C3.66 13.67 4.32 13.34 5 13 C5.41890218 10.21061788 5.41890218 10.21061788 5 7 C2.58333229 4.24958334 2.58333229 4.24958334 0 2 C0 1.34 0 0.68 0 0 Z " fill="#030405" transform="translate(38,6)"/>
<path d="M0 0 C3.73449838 -0.20747213 5.72294483 0.31274297 9 2 C10.45008578 2.50357524 11.9090171 2.98227373 13.375 3.4375 C17.11166983 4.6480575 20.53340138 6.13336997 24 8 C24.66 7.34 25.32 6.68 26 6 C28.68839385 5.73008094 31.29141936 5.91262643 34 6 C34 6.66 34 7.32 34 8 C34.928125 8.4021875 34.928125 8.4021875 35.875 8.8125 C38 10 38 10 40 13 C40.125 16.1875 40.125 16.1875 40 19 C39.01 19.33 38.02 19.66 37 20 C36.505 17.03 36.505 17.03 36 14 C34.39125 14.495 34.39125 14.495 32.75 15 C29 16 29 16 25 16 C25 17.32 25 18.64 25 20 C24.01 20 23.02 20 22 20 C21.67 20.66 21.34 21.32 21 22 C21.103125 20.7625 21.20625 19.525 21.3125 18.25 C21.3065367 14.86880709 21.27122591 14.29515761 18.875 11.6875 C17.92625 11.130625 16.9775 10.57375 16 10 C14.515 9.1028125 14.515 9.1028125 13 8.1875 C9.58854901 6.83713398 8.41540116 6.80460959 5 8 C3.96875 8.515625 2.9375 9.03125 1.875 9.5625 C-1 11 -1 11 -4 11 C-3.625 8.5625 -3.625 8.5625 -3 6 C-2.34 5.67 -1.68 5.34 -1 5 C-0.34444881 2.47266765 -0.34444881 2.47266765 0 0 Z M21 9 C21.33 9.99 21.66 10.98 22 12 C22.33 11.01 22.66 10.02 23 9 C22.34 9 21.68 9 21 9 Z " fill="#060707" transform="translate(4,0)"/>
<path d="M0 0 C0 1.98 0 3.96 0 6 C1.32 6 2.64 6 4 6 C3.67 8.31 3.34 10.62 3 13 C1.35 13.33 -0.3 13.66 -2 14 C-2.33 15.32 -2.66 16.64 -3 18 C-2.34 18 -1.68 18 -1 18 C-2.04874998 20.62187494 -2.64931313 21.79371361 -5.125 23.25 C-5.74375 23.4975 -6.3625 23.745 -7 24 C-8.32 22.35 -9.64 20.7 -11 19 C-10.01 18.67 -9.02 18.34 -8 18 C-7.5430902 13.9991076 -7.5430902 13.9991076 -10 11.875 C-10.66 11.25625 -11.32 10.6375 -12 10 C-12 9.34 -12 8.68 -12 8 C-12.99 8 -13.98 8 -15 8 C-15 7.34 -15 6.68 -15 6 C-14.01 6 -13.02 6 -12 6 C-12 4.68 -12 3.36 -12 2 C-10.56656 1.46809459 -9.12804633 0.94984742 -7.6875 0.4375 C-6.48673828 0.00244141 -6.48673828 0.00244141 -5.26171875 -0.44140625 C-3 -1 -3 -1 0 0 Z " fill="#E7C4B6" transform="translate(41,14)"/>
<path d="M0 0 C3.47691793 1.15897264 4.22015595 1.8640843 6 5 C6.1875 8.25 6.1875 8.25 6 11 C6.061875 10.236875 6.12375 9.47375 6.1875 8.6875 C7.26182481 5.13396408 8.81152275 4.71089023 12 3 C12.66 2.01 13.32 1.02 14 0 C16.475 0.495 16.475 0.495 19 1 C19.98248524 5.0527516 20.08159574 8.83861737 20 13 C17.02181366 13.88099735 14.54707135 14.06705164 11.453125 13.87890625 C10.60878906 13.83056641 9.76445313 13.78222656 8.89453125 13.73242188 C8.02183594 13.67634766 7.14914063 13.62027344 6.25 13.5625 C5.36183594 13.51029297 4.47367188 13.45808594 3.55859375 13.40429688 C1.37200804 13.27498267 -0.81407894 13.14003358 -3 13 C-3 12.01 -3 11.02 -3 10 C-2.34 10 -1.68 10 -1 10 C-1 9.34 -1 8.68 -1 8 C-1.66 8 -2.32 8 -3 8 C-2.25 2.25 -2.25 2.25 0 0 Z " fill="#56D5EE" transform="translate(27,33)"/>
<path d="M0 0 C0.9590625 -0.00773437 1.918125 -0.01546875 2.90625 -0.0234375 C5.5 0.375 5.5 0.375 7.3125 1.74609375 C8.5 3.375 8.5 3.375 9 5.8125 C8.29866707 9.40683126 6.41340917 10.31429596 3.5 12.375 C3.17 13.035 2.84 13.695 2.5 14.375 C-0.44075922 14.2382205 -2.69750694 14.04478103 -5.01171875 12.11328125 C-7.78594268 8.95750216 -8.5 7.66529965 -8.5 3.375 C-6.22132988 -0.02760876 -3.91924714 -0.03160683 0 0 Z " fill="#080405" transform="translate(12.5,30.625)"/>
<path d="M0 0 C0.99 0.66 1.98 1.32 3 2 C3.29296875 4.8203125 3.29296875 4.8203125 3.1875 8.125 C3.16042969 9.22070312 3.13335937 10.31640625 3.10546875 11.4453125 C3.07066406 12.28835937 3.03585938 13.13140625 3 14 C1.68 14 0.36 14 -1 14 C-1.33 11.69 -1.66 9.38 -2 7 C-3.65 7 -5.3 7 -7 7 C-7.33 9.31 -7.66 11.62 -8 14 C-9.32 14 -10.64 14 -12 14 C-12 10.04 -12 6.08 -12 2 C-7.54358475 -0.65262813 -5.03446455 -1.45440087 0 0 Z " fill="#D3E7F8" transform="translate(17,9)"/>
<path d="M0 0 C2.5 0.125 2.5 0.125 3.5 1.125 C3.54092937 3.45797433 3.54241723 5.79205225 3.5 8.125 C6.47 8.62 6.47 8.62 9.5 9.125 C9.5 10.115 9.5 11.105 9.5 12.125 C3.23 12.125 -3.04 12.125 -9.5 12.125 C-9.5 11.135 -9.5 10.145 -9.5 9.125 C-7.52 8.795 -5.54 8.465 -3.5 8.125 C-3.520625 6.990625 -3.54125 5.85625 -3.5625 4.6875 C-3.4833187 0.17416594 -3.4833187 0.17416594 0 0 Z " fill="#734E50" transform="translate(12.5,14.875)"/>
<path d="M0 0 C4.28357759 -0.36716379 6.50348319 0.54298819 10 3 C10.66 3.66 11.32 4.32 12 5 C13.19045994 5.73797743 14.40061625 6.44478681 15.625 7.125 C17.295625 8.053125 17.295625 8.053125 19 9 C18.67 9.66 18.34 10.32 18 11 C17.48050781 10.69964844 16.96101563 10.39929687 16.42578125 10.08984375 C12.14204393 7.68284581 12.14204393 7.68284581 7.375 7.0625 C4.83899095 8.02348999 4.83899095 8.02348999 1.875 9.5625 C-1 11 -1 11 -4 11 C-3.625 8.5625 -3.625 8.5625 -3 6 C-2.34 5.67 -1.68 5.34 -1 5 C-0.34444881 2.47266765 -0.34444881 2.47266765 0 0 Z " fill="#121D1D" transform="translate(4,0)"/>
<path d="M0 0 C3.50109084 1.16703028 4.23984869 1.8149643 6 5 C6.1875 8.75 6.1875 8.75 6 12 C1.545 12.495 1.545 12.495 -3 13 C-3 12.01 -3 11.02 -3 10 C-2.34 10 -1.68 10 -1 10 C-1 9.34 -1 8.68 -1 8 C-1.66 8 -2.32 8 -3 8 C-2.25 2.25 -2.25 2.25 0 0 Z " fill="#60D5EE" transform="translate(27,33)"/>
<path d="M0 0 C2.97534329 2.5399272 3.90364743 3.91603362 4.25 7.8125 C4.1675 8.534375 4.085 9.25625 4 10 C3.773125 9.360625 3.54625 8.72125 3.3125 8.0625 C2.1746191 5.84410203 2.1746191 5.84410203 -0.0625 5.125 C-4.15146498 4.95100149 -8.18594446 5.45546511 -12 7 C-12.33 7.99 -12.66 8.98 -13 10 C-13.31068741 6.58243849 -13.3625104 4.59893023 -11.5625 1.625 C-7.78733249 -0.76900866 -4.3466666 -0.92516207 0 0 Z " fill="#3794BF" transform="translate(40,8)"/>
<path d="M0 0 C0.66 0 1.32 0 2 0 C2 1.65 2 3.3 2 5 C0.68 5.33 -0.64 5.66 -2 6 C-2 3 -2 3 0 0 Z M-5 5 C-4.34 5.33 -3.68 5.66 -3 6 C-3.33 7.32 -3.66 8.64 -4 10 C-3.34 10 -2.68 10 -2 10 C-3.04874998 12.62187494 -3.64931313 13.79371361 -6.125 15.25 C-6.74375 15.4975 -7.3625 15.745 -8 16 C-9.32 14.35 -10.64 12.7 -12 11 C-11.01 10.67 -10.02 10.34 -9 10 C-9 9.01 -9 8.02 -9 7 C-7.68 7 -6.36 7 -5 7 C-5 6.34 -5 5.68 -5 5 Z " fill="#616469" transform="translate(42,22)"/>
<path d="M0 0 C3.3 0 6.6 0 10 0 C10.33 1.32 10.66 2.64 11 4 C8.03 6.475 8.03 6.475 5 9 C2.5 6.75 2.5 6.75 0 4 C0 2.68 0 1.36 0 0 Z " fill="#FA93BF" transform="translate(7,34)"/>
<path d="M0 0 C-2.57766799 2.57766799 -4.45880682 2.48357599 -8 3 C-8.99 3.495 -8.99 3.495 -10 4 C-10.46954261 7.04581269 -10.46954261 7.04581269 -10.625 10.5625 C-10.73714844 12.35880859 -10.73714844 12.35880859 -10.8515625 14.19140625 C-10.90054687 15.11824219 -10.94953125 16.04507812 -11 17 C-11.99 16.67 -12.98 16.34 -14 16 C-14 12.7 -14 9.4 -14 6 C-14.66 6 -15.32 6 -16 6 C-16 5.34 -16 4.68 -16 4 C-14.27921959 3.1290621 -12.54793677 2.27885442 -10.8125 1.4375 C-9.84957031 0.96183594 -8.88664063 0.48617188 -7.89453125 -0.00390625 C-4.72281223 -1.0953885 -3.16301775 -0.96567452 0 0 Z " fill="#100C0A" transform="translate(16,7)"/>
<path d="M0 0 C0.66 1.98 1.32 3.96 2 6 C1.01 6.33 0.02 6.66 -1 7 C-1.33 5.02 -1.66 3.04 -2 1 C-3.60875 1.495 -3.60875 1.495 -5.25 2 C-9 3 -9 3 -13 3 C-13 4.32 -13 5.64 -13 7 C-13.99 7 -14.98 7 -16 7 C-16.33 7.66 -16.66 8.32 -17 9 C-16.67 6.36 -16.34 3.72 -16 1 C-15.34 1.33 -14.68 1.66 -14 2 C-11.93554091 1.41291662 -11.93554091 1.41291662 -9.6875 0.5 C-6.06985218 -0.7895164 -3.74133449 -1.3275703 0 0 Z " fill="#142127" transform="translate(42,13)"/>
<path d="M0 0 C0.86625 0.495 1.7325 0.99 2.625 1.5 C3.57375 2.03625 4.5225 2.5725 5.5 3.125 C6.20125 3.57875 6.9025 4.0325 7.625 4.5 C7.295 5.16 6.965 5.82 6.625 6.5 C6.10550781 6.19964844 5.58601563 5.89929688 5.05078125 5.58984375 C0.79558928 3.19170891 0.79558928 3.19170891 -3.9375 2.5625 C-7.12917603 3.7900677 -10.25692818 5.09381075 -13.375 6.5 C-13.705 5.84 -14.035 5.18 -14.375 4.5 C-4.60251117 -0.68185351 -4.60251117 -0.68185351 0 0 Z " fill="#E7976A" transform="translate(15.375,4.5)"/>
<path d="M0 0 C0.33 0.66 0.66 1.32 1 2 C2.3153341 2.70151152 3.65117592 3.36525925 5 4 C5.99 4.66 6.98 5.32 8 6 C8.66 5.67 9.32 5.34 10 5 C10 6.32 10 7.64 10 9 C6.98342209 8.85969405 4.76158727 8.70648535 2.48828125 6.59765625 C1.26743934 5.11095765 0.12753478 3.55865102 -1 2 C-0.67 1.34 -0.34 0.68 0 0 Z " fill="#060304" transform="translate(5,36)"/>
<path d="M0 0 C1.9375 1.5 1.9375 1.5 3 3 C-0.66305234 3.74926071 -3.42355152 4.2380014 -7 3 C-7.33 4.32 -7.66 5.64 -8 7 C-8.66 5.68 -9.32 4.36 -10 3 C-7.29940087 -0.81261054 -4.39059989 -0.47042142 0 0 Z " fill="#140B0E" transform="translate(14,31)"/>
<path d="M0 0 C1.2065625 0.0309375 1.2065625 0.0309375 2.4375 0.0625 C2.4375 3.0325 2.4375 6.0025 2.4375 9.0625 C2.1075 9.0625 1.7775 9.0625 1.4375 9.0625 C1.4375 6.7525 1.4375 4.4425 1.4375 2.0625 C0.4475 2.0625 -0.5425 2.0625 -1.5625 2.0625 C-1.5625 4.0425 -1.5625 6.0225 -1.5625 8.0625 C-2.2225 8.0625 -2.8825 8.0625 -3.5625 8.0625 C-3.60491723 5.72955225 -3.60342937 3.39547433 -3.5625 1.0625 C-2.5625 0.0625 -2.5625 0.0625 0 0 Z " fill="#141C20" transform="translate(12.5625,14.9375)"/>
<path d="M0 0 C0.598125 0.33 1.19625 0.66 1.8125 1 C4.05386471 2.20787988 4.05386471 2.20787988 7 2 C7.33 1.34 7.66 0.68 8 0 C8.66 0 9.32 0 10 0 C8.95125002 2.62187494 8.35068687 3.79371361 5.875 5.25 C5.25625 5.4975 4.6375 5.745 4 6 C0 1.125 0 1.125 0 0 Z " fill="#64D9E6" transform="translate(30,32)"/>
<path d="M0 0 C0.33 0 0.66 0 1 0 C1 2.31 1 4.62 1 7 C-0.32 7.33 -1.64 7.66 -3 8 C-3 5.69 -3 3.38 -3 1 C-2.01 1.33 -1.02 1.66 0 2 C0 1.34 0 0.68 0 0 Z " fill="#47616C" transform="translate(46,39)"/>
<path d="M0 0 C0.66 0 1.32 0 2 0 C2 1.98 2 3.96 2 6 C0.68 6 -0.64 6 -2 6 C-2 5.01 -2 4.02 -2 3 C-1.34 3 -0.68 3 0 3 C0 2.01 0 1.02 0 0 Z " fill="#607075" transform="translate(26,40)"/>
<path d="M0 0 C0.99 0 1.98 0 3 0 C3 1.98 3 3.96 3 6 C2.01 6 1.02 6 0 6 C0 4.02 0 2.04 0 0 Z " fill="#3CA3D1" transform="translate(11,17)"/>
<path d="M0 0 C1.32 0 2.64 0 4 0 C4 1.65 4 3.3 4 5 C2.68 4.67 1.36 4.34 0 4 C0 2.68 0 1.36 0 0 Z " fill="#748086" transform="translate(34,39)"/>
<path d="" fill="#000000" transform="translate(0,0)"/>
<path d="" fill="#000000" transform="translate(0,0)"/>
<path d="" fill="#000000" transform="translate(0,0)"/>
<path d="" fill="#000000" transform="translate(0,0)"/>
<path d="" fill="#000000" transform="translate(0,0)"/>
<path d="" fill="#000000" transform="translate(0,0)"/>
<path d="" fill="#000000" transform="translate(0,0)"/>
<path d="" fill="#000000" transform="translate(0,0)"/>
<path d="" fill="#000000" transform="translate(0,0)"/>
<path d="" fill="#000000" transform="translate(0,0)"/>
</svg>
