<svg width="32" height="20" viewBox="0 0 32 20" fill="none" xmlns="http://www.w3.org/2000/svg">
<rect width="32" height="20" rx="2" fill="#1A1F71"/>
<path d="M12.5 15L14 5H16.5L14.2 15H12.5ZM21.8 5.4C21.2 5.2 20.6 5.1 19.8 5.1C17.7 5.1 16.3 6.2 16.3 8.7C16.3 10.9 18.3 12.1 19.3 12.6C20.3 13.1 20.7 13.4 20.7 14C20.7 14.8 19.6 15.2 18.6 15.2C17.6 15.2 16.9 14.9 16.3 14.7L15.9 16.5C16.6 16.8 17.8 17.1 19.1 17.1C21.6 17.1 23.2 15.8 23.2 13.1C23.2 15.8 23.2 13.1 23.2 11.1C23.2 9.5 21 8.6 20 8.1C19.5 7.9 18.9 7.6 18.9 7.1C18.9 6.5 19.6 6.2 20.2 6.2C20.7 6.2 21.6 6.3 22.1 6.6L22.6 4.9C22.6 4.9 22.4 4.8 21.8 5.4ZM25.2 15H27.5L29.5 5H27.3C26.8 5 26.4 5.3 26.2 5.7L22.4 15H24.8L25.2 15ZM10.5 5L7.7 12.2L7.3 10.1C7 9 6.8 8.1 6.5 7.1L5.8 5H3.3L7 15H9.6L13.8 5H10.5Z" fill="white"/>
</svg>
