<svg width="24" height="24" viewBox="0 0 24 24" fill="none" xmlns="http://www.w3.org/2000/svg">
<g clip-path="url(#clip0_2334_6302)">
<path d="M12.0001 8.56091C13.4259 8.56091 14.5861 7.40094 14.5861 5.97491V0.703125C14.5861 0.314758 14.2711 0 13.8829 0H10.1172C9.729 0 9.41406 0.314758 9.41406 0.703125V5.97491C9.41406 7.40094 10.5742 8.56091 12.0001 8.56091Z" fill="black"/>
<path d="M21.414 5.27148H15.9922V5.97461C15.9922 8.1759 14.2013 9.96686 12 9.96686C9.79871 9.96686 8.00775 8.1759 8.00775 5.97461V5.27148H2.586C1.16016 5.27148 0 6.43164 0 7.85748V21.4137C0 22.8397 1.16016 23.9997 2.586 23.9997H21.414C22.84 23.9997 24 22.8397 24 21.4137V7.85748C24 6.43164 22.84 5.27148 21.414 5.27148ZM10.8203 19.8075C10.8203 20.1959 10.5055 20.5106 10.1171 20.5106H4.46869C4.0805 20.5106 3.76556 20.1959 3.76556 19.8075V18.8661C3.76556 17.624 4.41138 16.5306 5.38458 15.902C4.96399 15.4421 4.70709 14.83 4.70709 14.1591C4.70709 12.7332 5.86706 11.5731 7.29291 11.5731C8.71893 11.5731 9.87891 12.7332 9.87891 14.1591C9.87891 14.83 9.62201 15.4419 9.20142 15.902C10.1744 16.5306 10.8203 17.624 10.8203 18.8661V19.8075ZM19.5313 20.5106H13.8829C13.4945 20.5106 13.1797 20.1959 13.1797 19.8075C13.1797 19.4191 13.4945 19.1044 13.8829 19.1044H19.5313C19.9195 19.1044 20.2344 19.4191 20.2344 19.8075C20.2344 20.1959 19.9195 20.5106 19.5313 20.5106ZM19.5313 16.7451H13.8829C13.4945 16.7451 13.1797 16.4303 13.1797 16.0419C13.1797 15.6536 13.4945 15.3388 13.8829 15.3388H19.5313C19.9195 15.3388 20.2344 15.6536 20.2344 16.0419C20.2344 16.4303 19.9195 16.7451 19.5313 16.7451ZM19.5313 12.9793H13.8829C13.4945 12.9793 13.1797 12.6646 13.1797 12.2762C13.1797 11.888 13.4945 11.5731 13.8829 11.5731H19.5313C19.9195 11.5731 20.2344 11.888 20.2344 12.2762C20.2344 12.6646 19.9195 12.9793 19.5313 12.9793Z" fill="black"/>
</g>
<defs>
<clipPath id="clip0_2334_6302">
<rect width="24" height="24" fill="white"/>
</clipPath>
</defs>
</svg>
