<svg width="20" height="20" viewBox="0 0 20 20" fill="none" xmlns="http://www.w3.org/2000/svg">
<path d="M15.8333 8.33317H16.6667C17.1269 8.33317 17.5 8.70625 17.5 9.1665V17.4998C17.5 17.9601 17.1269 18.3332 16.6667 18.3332H3.33333C2.8731 18.3332 2.5 17.9601 2.5 17.4998V9.1665C2.5 8.70625 2.8731 8.33317 3.33333 8.33317H4.16667V7.49984C4.16667 4.27818 6.77834 1.6665 10 1.6665C13.2217 1.6665 15.8333 4.27818 15.8333 7.49984V8.33317ZM4.16667 9.99984V16.6665H15.8333V9.99984H4.16667ZM9.16667 11.6665H10.8333V14.9998H9.16667V11.6665ZM14.1667 8.33317V7.49984C14.1667 5.19865 12.3012 3.33317 10 3.33317C7.69882 3.33317 5.83333 5.19865 5.83333 7.49984V8.33317H14.1667Z" fill="#454545"/>
</svg>
