<?xml version="1.0" encoding="UTF-8"?>
<svg version="1.1" xmlns="http://www.w3.org/2000/svg" width="48" height="48">
<path d="M0 0 C3.24367388 1.61557502 3.42063027 2.47679059 5 6 C5.35723682 9.38117099 5.30086221 12.61697158 5 16 C5.969375 16.2475 6.93875 16.495 7.9375 16.75 C8.948125 17.1625 9.95875 17.575 11 18 C12.31279061 21.25321392 12.11464814 24.61177976 12.09765625 28.078125 C12.09515869 29.12387695 12.09266113 30.16962891 12.09008789 31.24707031 C12.08098389 32.56803711 12.07187988 33.88900391 12.0625 35.25 C12.041875 39.4575 12.02125 43.665 12 48 C-0.54 48 -13.08 48 -26 48 C-26.04125 43.606875 -26.0825 39.21375 -26.125 34.6875 C-26.14320801 33.30522217 -26.16141602 31.92294434 -26.18017578 30.4987793 C-26.1851709 29.40992432 -26.19016602 28.32106934 -26.1953125 27.19921875 C-26.20578613 26.08377686 -26.21625977 24.96833496 -26.22705078 23.8190918 C-26 21 -26 21 -24 18 C-23.67 17.34 -23.34 16.68 -23 16 C-21.68 16 -20.36 16 -19 16 C-19.05800781 15.34773437 -19.11601562 14.69546875 -19.17578125 14.0234375 C-19.40821787 9.52080815 -19.24312836 6.54236327 -17.375 2.375 C-12.99754789 -2.0530585 -5.61708996 -0.97863381 0 0 Z M-14 9 C-14 11.31 -14 13.62 -14 16 C-9.38 16 -4.76 16 0 16 C0.68040791 9.44760253 0.68040791 9.44760253 -1.75 6.5625 C-6.53396141 3.24030458 -10.09778582 5.54121925 -14 9 Z " fill="#E9AB1E" transform="translate(31,0)"/>
<path d="M0 0 C3.24367388 1.61557502 3.42063027 2.47679059 5 6 C5.35723682 9.38117099 5.30086221 12.61697158 5 16 C5.66 16.33 6.32 16.66 7 17 C6.34 17 5.68 17 5 17 C3.89163577 18.88316159 3.89163577 18.88316159 3 21 C3.33 21.66 3.66 22.32 4 23 C-5.24 23 -14.48 23 -24 23 C-23.67 20.69 -23.34 18.38 -23 16 C-21.68 16 -20.36 16 -19 16 C-19.05800781 15.34773437 -19.11601562 14.69546875 -19.17578125 14.0234375 C-19.40821787 9.52080815 -19.24312836 6.54236327 -17.375 2.375 C-12.99754789 -2.0530585 -5.61708996 -0.97863381 0 0 Z M-14 9 C-14 11.31 -14 13.62 -14 16 C-9.38 16 -4.76 16 0 16 C0.68040791 9.44760253 0.68040791 9.44760253 -1.75 6.5625 C-6.53396141 3.24030458 -10.09778582 5.54121925 -14 9 Z " fill="#B0ADB3" transform="translate(31,0)"/>
<path d="M0 0 C4.62 0 9.24 0 14 0 C13.01 1.485 13.01 1.485 12 3 C11.60986284 4.9896995 11.26797351 6.99019869 11 9 C11.99 9.33 12.98 9.66 14 10 C14.33 12.97 14.66 15.94 15 19 C10.05 19 5.1 19 0 19 C0 12.73 0 6.46 0 0 Z " fill="#FAC602" transform="translate(7,25)"/>
<path d="M0 0 C2.97 0 5.94 0 9 0 C9.02683987 2.97922593 9.04676037 5.95821295 9.0625 8.9375 C9.07087891 9.78763672 9.07925781 10.63777344 9.08789062 11.51367188 C9.09111328 12.32255859 9.09433594 13.13144531 9.09765625 13.96484375 C9.10289307 14.7137085 9.10812988 15.46257324 9.11352539 16.23413086 C9 18 9 18 8 19 C6.14712498 19.07226502 4.29166122 19.0838122 2.4375 19.0625 C1.42558594 19.05347656 0.41367187 19.04445313 -0.62890625 19.03515625 C-1.41136719 19.02355469 -2.19382812 19.01195313 -3 19 C-2.69217504 17.35328588 -2.37860766 15.70764424 -2.0625 14.0625 C-1.88847656 13.14597656 -1.71445312 12.22945312 -1.53515625 11.28515625 C-1 9 -1 9 0 8 C0.07148199 6.64756083 0.08399454 5.29165633 0.0625 3.9375 C0.041875 2.638125 0.02125 1.33875 0 0 Z " fill="#FAC204" transform="translate(29,26)"/>
<path d="M0 0 C2.0625 0.4375 2.0625 0.4375 4 1 C4 1.66 4 2.32 4 3 C4.99 2.67 5.98 2.34 7 2 C7.33 1.34 7.66 0.68 8 0 C10.24762013 -0.16226135 12.49859712 -0.27851131 14.75 -0.375 C16.00296875 -0.44460937 17.2559375 -0.51421875 18.546875 -0.5859375 C19.68640625 -0.39257812 20.8259375 -0.19921875 22 0 C23.32 1.98 24.64 3.96 26 6 C16.76 6 7.52 6 -2 6 C-1 1 -1 1 0 0 Z " fill="#FDDF7C" transform="translate(9,17)"/>
<path d="M0 0 C2.09352976 3.43367856 2.23437612 6.09363593 2.1953125 10.078125 C2.19031738 11.12387695 2.18532227 12.16962891 2.18017578 13.24707031 C2.16196777 14.56803711 2.14375977 15.88900391 2.125 17.25 C2.08375 21.4575 2.0425 25.665 2 30 C-9.88 30 -21.76 30 -34 30 C-34 29.34 -34 28.68 -34 28 C-33.06615479 27.97494385 -32.13230957 27.9498877 -31.17016602 27.92407227 C-27.71674811 27.82913072 -24.2635104 27.72988742 -20.81030273 27.62768555 C-19.31360731 27.58428187 -17.81686061 27.54261087 -16.32006836 27.50268555 C-14.17285688 27.44511384 -12.02590479 27.38138284 -9.87890625 27.31640625 C-8.5854126 27.27974854 -7.29191895 27.24309082 -5.95922852 27.20532227 C-3.11444992 27.3332722 -3.11444992 27.3332722 -2 26 C-1.93730507 24.4960703 -1.94057295 22.98926897 -1.97265625 21.484375 C-1.98490234 20.56269531 -1.99714844 19.64101563 -2.00976562 18.69140625 C-2.04464317 16.74601422 -2.08363845 14.80069122 -2.12695312 12.85546875 C-2.23053469 4.09368719 -2.23053469 4.09368719 0 0 Z " fill="#E9912F" transform="translate(41,18)"/>
<path d="M0 0 C2.4375 0.8125 2.4375 0.8125 4.4375 2.8125 C4.02029051 7.29750198 2.72691817 11.51443944 1.4375 15.8125 C0.1175 15.8125 -1.2025 15.8125 -2.5625 15.8125 C-5.29779412 6.69485294 -5.29779412 6.69485294 -5.5625 2.8125 C-3.95324459 0.04100457 -3.20087366 -0.23421027 0 0 Z " fill="#474645" transform="translate(24.5625,26.1875)"/>
<path d="M0 0 C2.86724686 0.57344937 3.8614515 0.8614515 6 3 C6.1953125 5.1640625 6.1953125 5.1640625 6.125 7.625 C6.10695313 8.44226562 6.08890625 9.25953125 6.0703125 10.1015625 C6.03550781 11.04128906 6.03550781 11.04128906 6 12 C6.66 12.33 7.32 12.66 8 13 C7.34 13 6.68 13 6 13 C5.67 13.99 5.34 14.98 5 16 C4.01 16 3.02 16 2 16 C0.36525374 12.73050748 0.98581225 9.22843775 1.0625 5.62890625 C1.12606814 2.88888663 1.12606814 2.88888663 0 0 Z " fill="#D0C7E2" transform="translate(30,4)"/>
<path d="M0 0 C2.1875 0.3125 2.1875 0.3125 4 1 C4.625 2.875 4.625 2.875 5 5 C3 7 3 7 -0.16455078 7.22705078 C-1.50817963 7.22673389 -2.8518341 7.21542181 -4.1953125 7.1953125 C-4.90275604 7.1924826 -5.61019958 7.18965271 -6.33908081 7.18673706 C-8.6012251 7.17553137 -10.86297515 7.15042679 -13.125 7.125 C-14.65754637 7.11497067 -16.19009894 7.10584474 -17.72265625 7.09765625 C-21.48192301 7.07559086 -25.24089464 7.04105896 -29 7 C-29 6.67 -29 6.34 -29 6 C-20.09 5.67 -11.18 5.34 -2 5 C-2.33 4.34 -2.66 3.68 -3 3 C-1.75 1.4375 -1.75 1.4375 0 0 Z " fill="#FBC74E" transform="translate(36,17)"/>
<path d="M0 0 C2.0625 0.4375 2.0625 0.4375 4 1 C4 1.66 4 2.32 4 3 C4.99 3 5.98 3 7 3 C7 3.66 7 4.32 7 5 C13.27 5 19.54 5 26 5 C26 5.33 26 5.66 26 6 C16.76 6 7.52 6 -2 6 C-1 1 -1 1 0 0 Z " fill="#FAE176" transform="translate(9,17)"/>
<path d="M0 0 C0 0.66 0 1.32 0 2 C-2.64 2 -5.28 2 -8 2 C-7.67 2.66 -7.34 3.32 -7 4 C-6.960008 5.99960012 -6.95653201 8.00047242 -7 10 C-7.99 10.495 -7.99 10.495 -9 11 C-8.95875 10.05125 -8.9175 9.1025 -8.875 8.125 C-8.65026182 4.89755144 -8.65026182 4.89755144 -11 3 C-13.60280568 3.32041397 -13.60280568 3.32041397 -16 4 C-16.12375 4.804375 -16.2475 5.60875 -16.375 6.4375 C-16.58125 7.283125 -16.7875 8.12875 -17 9 C-17.99 9.495 -17.99 9.495 -19 10 C-19.35687732 4.64684015 -19.35687732 4.64684015 -18 2.1875 C-12.88397018 -0.85014271 -5.77792224 -0.10317718 0 0 Z " fill="#F6C420" transform="translate(37,24)"/>
<path d="M0 0 C1 2 1 2 -1 10 C-7.27 10 -13.54 10 -20 10 C-20 9.67 -20 9.34 -20 9 C-15.38 8.67 -10.76 8.34 -6 8 C-6 5.69 -6 3.38 -6 1 C-5.67 1 -5.34 1 -5 1 C-5 2.98 -5 4.96 -5 7 C-3.68 7 -2.36 7 -1 7 C-1.020625 6.030625 -1.04125 5.06125 -1.0625 4.0625 C-1 1 -1 1 0 0 Z " fill="#F8C829" transform="translate(27,35)"/>
<path d="M0 0 C3.63 0 7.26 0 11 0 C11.33 0.99 11.66 1.98 12 3 C8.04 3 4.08 3 0 3 C0 2.01 0 1.02 0 0 Z " fill="#FDEDA7" transform="translate(20,17)"/>
<path d="M0 0 C0.66 0.33 1.32 0.66 2 1 C2 3.97 2 6.94 2 10 C2.66 10.33 3.32 10.66 4 11 C3.34 11 2.68 11 2 11 C1.67 11.99 1.34 12.98 1 14 C0.01 13.67 -0.98 13.34 -2 13 C-1.34 13 -0.68 13 0 13 C-0.08378906 12.14535156 -0.16757812 11.29070313 -0.25390625 10.41015625 C-0.35574219 9.30542969 -0.45757812 8.20070313 -0.5625 7.0625 C-0.66691406 5.96035156 -0.77132812 4.85820312 -0.87890625 3.72265625 C-0.91886719 2.82417969 -0.95882812 1.92570313 -1 1 C-0.67 0.67 -0.34 0.34 0 0 Z " fill="#9F83A6" transform="translate(34,6)"/>
<path d="M0 0 C2.625 0.375 2.625 0.375 5 1 C2 3 2 3 -1 3 C-1 3.99 -1 4.98 -1 6 C-1.66 6 -2.32 6 -3 6 C-2.42655063 3.13275314 -2.1385485 2.1385485 0 0 Z " fill="#2E2C2F" transform="translate(22,26)"/>
<path d="" fill="#000000" transform="translate(0,0)"/>
<path d="" fill="#000000" transform="translate(0,0)"/>
<path d="" fill="#000000" transform="translate(0,0)"/>
<path d="" fill="#000000" transform="translate(0,0)"/>
<path d="" fill="#000000" transform="translate(0,0)"/>
</svg>
