<svg width="29" height="24" viewBox="0 0 29 24" fill="none" xmlns="http://www.w3.org/2000/svg">
<path d="M6.15318 7.51289C6.15318 6.75219 6.37875 6.00858 6.80137 5.37609C7.22399 4.74359 7.82467 4.25062 8.52746 3.95952C9.23025 3.66841 10.0036 3.59225 10.7497 3.74065C11.4957 3.88906 12.1811 4.25537 12.7189 4.79326C13.2568 5.33115 13.6231 6.01647 13.7716 6.76254C13.92 7.50862 13.8438 8.28195 13.5527 8.98474C13.2616 9.68753 12.7686 10.2882 12.1361 10.7108C11.5036 11.1335 10.76 11.359 9.99932 11.359C8.97926 11.359 8.00098 10.9538 7.27969 10.2325C6.55839 9.51123 6.15318 8.53295 6.15318 7.51289ZM16.4095 20.3333H3.58908C3.07906 20.3333 2.58992 20.1307 2.22927 19.7701C1.86862 19.4094 1.66602 18.9203 1.66602 18.4103C1.66602 16.8802 2.27384 15.4128 3.35578 14.3308C4.43771 13.2489 5.90513 12.6411 7.43522 12.6411H12.5634C14.0935 12.6411 15.5609 13.2489 16.6429 14.3308C17.7248 15.4128 18.3326 16.8802 18.3326 18.4103C18.3326 18.9203 18.13 19.4094 17.7694 19.7701C17.4087 20.1307 16.9196 20.3333 16.4095 20.3333Z" fill="#596262"/>
<path d="M28 0V24" stroke="#D6DCDF"/>
</svg>
