<?xml version="1.0" encoding="UTF-8"?>
<svg version="1.1" xmlns="http://www.w3.org/2000/svg" width="48" height="48">
<path d="M0 0 C3.91211733 1.15585285 6.8745041 2.35534962 10 5 C9.67 3.35 9.34 1.7 9 0 C11.475 0.495 11.475 0.495 14 1 C14 2.98 14 4.96 14 7 C13.01 6.67 12.02 6.34 11 6 C11.95421808 7.14926266 12.91352045 8.29430541 13.875 9.4375 C14.40867188 10.07558594 14.94234375 10.71367187 15.4921875 11.37109375 C16.9222757 13.10805004 16.9222757 13.10805004 19 14 C18.505 12.515 18.505 12.515 18 11 C19.98 11 21.96 11 24 11 C24 12.32 24 13.64 24 15 C22.68 15 21.36 15 20 15 C20.66 15.70125 21.32 16.4025 22 17.125 C24.30233203 20.43460229 24.36630156 22.06225823 24 26 C22.329375 26.2165625 22.329375 26.2165625 20.625 26.4375 C17.17857953 26.78372035 17.17857953 26.78372035 15 28 C14.34 27.67 13.68 27.34 13 27 C13 27.66 13 28.32 13 29 C11.35 29.66 9.7 30.32 8 31 C7.67 34.3 7.34 37.6 7 41 C8.485 41.495 8.485 41.495 10 42 C10 43.98 10 45.96 10 48 C7.4375 48.4375 7.4375 48.4375 4 48 C1.3796981 45.91317274 -0.8158151 43.53313752 -3 41 C-4.0828125 41.7734375 -4.0828125 41.7734375 -5.1875 42.5625 C-8 44 -8 44 -10.375 44.0625 C-14.17407619 42.52477868 -17.4882265 40.27182024 -20 37 C-20.4921875 34.6015625 -20.4921875 34.6015625 -20 32 C-17.98828125 29.5703125 -17.98828125 29.5703125 -15.3125 27.125 C-11.26946272 23.29926883 -8.11957721 19.58187903 -5 15 C-4.34 14.67 -3.68 14.34 -3 14 C-2.60697555 11.24930866 -2.60697555 11.24930866 -2.5 8.0625 C-2.22152691 2.22152691 -2.22152691 2.22152691 0 0 Z " fill="#C2E0EF" transform="translate(21,0)"/>
<path d="M0 0 C0.66 0.99 1.32 1.98 2 3 C1.34 3.66 0.68 4.32 0 5 C2.97 7.97 5.94 10.94 9 14 C10.65 13.01 12.3 12.02 14 11 C14.66 11 15.32 11 16 11 C16 14.3 16 17.6 16 21 C16.99 21.33 17.98 21.66 19 22 C19 23.98 19 25.96 19 28 C16.4375 28.4375 16.4375 28.4375 13 28 C10.3796981 25.91317274 8.1841849 23.53313752 6 21 C4.9171875 21.7734375 4.9171875 21.7734375 3.8125 22.5625 C1 24 1 24 -1.375 24.0625 C-5.17407619 22.52477868 -8.4882265 20.27182024 -11 17 C-11.5078125 14.62109375 -11.5078125 14.62109375 -11 12 C-8.84765625 9.39453125 -8.84765625 9.39453125 -6.0625 6.8125 C-2.57904588 3.74770346 -2.57904588 3.74770346 0 0 Z " fill="#D2428A" transform="translate(12,20)"/>
<path d="M0 0 C3.91211733 1.15585285 6.8745041 2.35534962 10 5 C9.67 3.35 9.34 1.7 9 0 C10.65 0.33 12.3 0.66 14 1 C14 2.98 14 4.96 14 7 C13.01 6.67 12.02 6.34 11 6 C11.95421808 7.14926266 12.91352045 8.29430541 13.875 9.4375 C14.67550781 10.39462891 14.67550781 10.39462891 15.4921875 11.37109375 C16.9222757 13.10805004 16.9222757 13.10805004 19 14 C18.67 13.01 18.34 12.02 18 11 C19.98 11 21.96 11 24 11 C24 12.32 24 13.64 24 15 C22.68 15 21.36 15 20 15 C20.66 15.70125 21.32 16.4025 22 17.125 C24.30233203 20.43460229 24.36630156 22.06225823 24 26 C20.76448221 26.36354533 19.39301427 26.28696481 16.7199707 24.33520508 C15.96288818 23.57103271 15.20580566 22.80686035 14.42578125 22.01953125 C13.59369141 21.18486328 12.76160156 20.35019531 11.90429688 19.49023438 C11.04900391 18.60658203 10.19371094 17.72292969 9.3125 16.8125 C8.44560547 15.94818359 7.57871094 15.08386719 6.68554688 14.19335938 C-0.291929 7.10728466 -0.291929 7.10728466 -2 2 C-1.34 1.34 -0.68 0.68 0 0 Z " fill="#CD0F6A" transform="translate(21,0)"/>
<path d="M0 0 C3.6210609 0.28938806 5.32229767 1.99473792 7.75 4.5625 C8.36359375 5.20316406 8.9771875 5.84382813 9.609375 6.50390625 C10.06828125 6.99761719 10.5271875 7.49132812 11 8 C9.68 8.99 8.36 9.98 7 11 C6.34 10.67 5.68 10.34 5 10 C5 10.66 5 11.32 5 12 C4.39671875 12.18175781 3.7934375 12.36351562 3.171875 12.55078125 C-2.85585198 14.41987906 -2.85585198 14.41987906 -8 18 C-9.65 16.02 -11.3 14.04 -13 12 C-12.48050781 11.55269531 -11.96101563 11.10539062 -11.42578125 10.64453125 C-10.37970703 9.73767578 -10.37970703 9.73767578 -9.3125 8.8125 C-8.58160156 8.17957031 -7.85070312 7.54664063 -7.09765625 6.89453125 C-5.36354497 5.32834136 -3.80841813 3.73428977 -2.25 2 C-1.5075 1.34 -0.765 0.68 0 0 Z " fill="#ADD6E8" transform="translate(29,17)"/>
<path d="M0 0 C3.91211733 1.15585285 6.8745041 2.35534962 10 5 C9.67 3.35 9.34 1.7 9 0 C10.65 0.33 12.3 0.66 14 1 C14 2.98 14 4.96 14 7 C13.01 6.67 12.02 6.34 11 6 C11.99 7.485 11.99 7.485 13 9 C12.68471805 12.36300742 11.38290768 13.73912802 9 16 C7.53238987 14.61392377 6.07625811 13.21568805 4.625 11.8125 C3.81289063 11.03519531 3.00078125 10.25789062 2.1640625 9.45703125 C0.01140148 7.012945 -1.00632706 5.07383443 -2 2 C-1.34 1.34 -0.68 0.68 0 0 Z " fill="#E42E84" transform="translate(21,0)"/>
<path d="M0 0 C0 3.3 0 6.6 0 10 C0.99 10.33 1.98 10.66 3 11 C3 12.98 3 14.96 3 17 C0.5 17.5 0.5 17.5 -3 17 C-5.95370122 14.58622266 -8.48389665 11.86095001 -11 9 C-8.88062329 4.25421866 -5.55331594 0 0 0 Z " fill="#93480F" transform="translate(28,31)"/>
<path d="M0 0 C2.375 0.3125 2.375 0.3125 5 1 C5.66 1.99 6.32 2.98 7 4 C6.3503125 4.5878125 6.3503125 4.5878125 5.6875 5.1875 C3.86141661 7.01043451 3.86141661 7.01043451 2.5 9.625 C1 12 1 12 -2 13 C-4.0625 12.8125 -4.0625 12.8125 -6 12 C-7.25 9.9375 -7.25 9.9375 -8 8 C-6.36272637 6.19899901 -5.0956064 5.04499125 -2.875 4 C-0.6469565 3.08797022 -0.6469565 3.08797022 0 0 Z " fill="#E91179" transform="translate(14,31)"/>
<path d="M0 0 C0 2.97 0 5.94 0 9 C-4.875 6.375 -4.875 6.375 -6 3 C-3.375 0 -3.375 0 0 0 Z " fill="#4D2405" transform="translate(28,31)"/>
<path d="M0 0 C0.99 0.99 1.98 1.98 3 3 C1.35 4.65 -0.3 6.3 -2 8 C-2.99 7.67 -3.98 7.34 -5 7 C-3.70700306 4.11562221 -2.34058637 2.12780579 0 0 Z " fill="#159EA0" transform="translate(41,2)"/>
<path d="M0 0 C1.65 0.33 3.3 0.66 5 1 C5 2.98 5 4.96 5 7 C4.01 6.67 3.02 6.34 2 6 C1.67 6.66 1.34 7.32 1 8 C0.01 7.34 -0.98 6.68 -2 6 C-1.67 5.34 -1.34 4.68 -1 4 C-0.34 4.33 0.32 4.66 1 5 C0.67 3.35 0.34 1.7 0 0 Z " fill="#178085" transform="translate(30,0)"/>
<path d="M0 0 C1.98 0 3.96 0 6 0 C6 1.32 6 2.64 6 4 C4.35 3.67 2.7 3.34 1 3 C0.67 2.01 0.34 1.02 0 0 Z " fill="#16B1B4" transform="translate(39,11)"/>
<path d="" fill="#000000" transform="translate(0,0)"/>
<path d="" fill="#000000" transform="translate(0,0)"/>
<path d="" fill="#000000" transform="translate(0,0)"/>
<path d="" fill="#000000" transform="translate(0,0)"/>
<path d="" fill="#000000" transform="translate(0,0)"/>
<path d="" fill="#000000" transform="translate(0,0)"/>
<path d="" fill="#000000" transform="translate(0,0)"/>
<path d="" fill="#000000" transform="translate(0,0)"/>
<path d="" fill="#000000" transform="translate(0,0)"/>
<path d="" fill="#000000" transform="translate(0,0)"/>
<path d="" fill="#000000" transform="translate(0,0)"/>
<path d="" fill="#000000" transform="translate(0,0)"/>
<path d="" fill="#000000" transform="translate(0,0)"/>
<path d="" fill="#000000" transform="translate(0,0)"/>
<path d="" fill="#000000" transform="translate(0,0)"/>
<path d="" fill="#000000" transform="translate(0,0)"/>
<path d="" fill="#000000" transform="translate(0,0)"/>
<path d="" fill="#000000" transform="translate(0,0)"/>
<path d="" fill="#000000" transform="translate(0,0)"/>
<path d="" fill="#000000" transform="translate(0,0)"/>
<path d="" fill="#000000" transform="translate(0,0)"/>
<path d="" fill="#000000" transform="translate(0,0)"/>
<path d="" fill="#000000" transform="translate(0,0)"/>
</svg>
