<svg width="24" height="24" viewBox="0 0 24 24" fill="none" xmlns="http://www.w3.org/2000/svg">
<g clip-path="url(#clip0_2334_6281)">
<path d="M6 2.09961L0 8.09961L3 9.95666L6 8.09961L7.69411 5.09961L6 2.09961Z" fill="#FF2820"/>
<path d="M6 8.09961H0V15.8996L3 17.547L6 15.8996V8.09961Z" fill="#0084FF"/>
<path d="M0 15.9004V19.9004C0 21.0004 0.9 21.9004 2.00002 21.9004H6L7.69411 18.7156L6 15.9004H0Z" fill="#0066DD"/>
<path d="M22.761 4.22911L19.0501 7.16869V7.19883L17.8398 11.8193L19.0501 16.4952L22.7445 19.4685C23.2401 19.8845 24.0001 19.5351 24.0001 18.8863V4.81139C24.0001 4.16255 23.2566 3.81319 22.761 4.22911Z" fill="#00AD3C"/>
<path d="M19.05 7.16947V4.07666C19.05 2.9893 18.1691 2.09961 17.0925 2.09961H13.1775H6V8.09961H13.35V11.9996L17.2989 11.5597L19.05 7.16947Z" fill="#FFBA00"/>
<path d="M13.35 15.9H6V21.9H13.1775H17.0925C18.1691 21.9 19.05 21.0116 19.05 19.9258V16.5L17.091 12.4753L13.35 12V15.9Z" fill="#00AD3C"/>
<path d="M13.3496 12.0001L19.0496 16.5001V7.16992L13.3496 12.0001Z" fill="#00831E"/>
</g>
<defs>
<clipPath id="clip0_2334_6281">
<rect width="24" height="24" fill="white"/>
</clipPath>
</defs>
</svg>
