<?xml version="1.0" encoding="UTF-8"?>
<svg version="1.1" xmlns="http://www.w3.org/2000/svg" width="48" height="48">
<path d="M0 0 C1.24652344 -0.02578125 2.49304688 -0.0515625 3.77734375 -0.078125 C7.0625 0.25 7.0625 0.25 8.9921875 1.50390625 C10.91870691 4.64680471 10.23973049 7.6463134 10.0625 11.25 C11.0525 11.58 12.0425 11.91 13.0625 12.25 C11.96494618 16.64021526 10.87708648 19.73176691 8.0625 23.25 C7.35087557 24.89797236 6.67218047 26.56165408 6.0625 28.25 C9.10384491 26.58075929 9.10384491 26.58075929 10.0625 24.25 C10.70703125 24.13785156 11.3515625 24.02570312 12.015625 23.91015625 C12.69109375 23.69230469 13.3665625 23.47445313 14.0625 23.25 C15.2000213 21.16965706 15.2000213 21.16965706 15.8125 18.6875 C16.05484375 17.86121094 16.2971875 17.03492187 16.546875 16.18359375 C16.71703125 15.54550781 16.8871875 14.90742188 17.0625 14.25 C18.72861905 14.207279 20.39632885 14.20936168 22.0625 14.25 C23.0625 15.25 23.0625 15.25 23.4375 17.5 C23.0625 20.25 23.0625 20.25 20.5625 22.5625 C17.97846675 25.34033575 17.66841731 25.72162956 17.5625 29.25 C17.73068543 32.07761749 18.01162322 33.1694451 19.5625 35.625 C21.0625 38.25 21.0625 38.25 21.0625 48.25 C7.2025 48.25 -6.6575 48.25 -20.9375 48.25 C-20.9375 37 -20.9375 37 -16.9375 31.25 C-16.2775 31.25 -15.6175 31.25 -14.9375 31.25 C-15.2675 29.27 -15.5975 27.29 -15.9375 25.25 C-17.5875 25.25 -19.2375 25.25 -20.9375 25.25 C-22.77582664 22.14782379 -23.41196226 19.85591321 -22.9375 16.25 C-19.49642734 13.95595156 -17.96910191 13.98706944 -13.9375 14.25 C-13.6075 14.58 -13.2775 14.91 -12.9375 15.25 C-12.4571682 13.66701974 -11.97828388 12.08360022 -11.5 10.5 C-11.09974609 9.17742188 -11.09974609 9.17742188 -10.69140625 7.828125 C-9.92066349 5.31801817 -9.92066349 5.31801817 -9.46484375 2.984375 C-9.29082031 2.41203125 -9.11679688 1.8396875 -8.9375 1.25 C-5.98361864 -0.22694068 -3.28588118 0.04069203 0 0 Z M-11.9375 18.25 C-12.94886941 20.98069741 -12.98307718 22.11001293 -12.0625 24.9375 C-11.13745785 27.15888223 -11.13745785 27.15888223 -9.9375 28.25 C-8.27132885 28.29063832 -6.60361905 28.292721 -4.9375 28.25 C-4.60174029 25.170643 -4.60174029 25.170643 -6.75 23.25 C-7.471875 22.59 -8.19375 21.93 -8.9375 21.25 C-9.9375 20.25 -10.9375 19.25 -11.9375 18.25 Z " fill="#080809" transform="translate(23.9375,-0.25)"/>
<path d="M0 0 C2.64 0 5.28 0 8 0 C8 1.32 8 2.64 8 4 C10.43717258 3.72965366 10.43717258 3.72965366 13 3 C13.66 2.01 14.32 1.02 15 0 C16.65 0.66 18.3 1.32 20 2 C19.62230469 2.58136719 19.24460937 3.16273437 18.85546875 3.76171875 C18.57316406 4.50035156 18.29085937 5.23898438 18 6 C18.82022691 7.98227135 18.82022691 7.98227135 20.3125 9.8125 C23.36812952 13.87272005 23.17321504 15.21250526 24 21 C14.76 21 5.52 21 -4 21 C-4 16 -4 16 -3 15 C-2.76572222 12.98405418 -2.58663876 10.961526 -2.4375 8.9375 C-2.35371094 7.83277344 -2.26992188 6.72804688 -2.18359375 5.58984375 C-2.12300781 4.73519531 -2.06242187 3.88054688 -2 3 C-1.34 3 -0.68 3 0 3 C0 2.01 0 1.02 0 0 Z " fill="#3F2B31" transform="translate(20,26)"/>
<path d="M0 0 C1.85625 -0.01160156 1.85625 -0.01160156 3.75 -0.0234375 C7 0.375 7 0.375 8.92578125 1.63671875 C10.86214057 4.7701002 10.17699868 7.77602682 10 11.375 C11.485 11.87 11.485 11.87 13 12.375 C11.90244618 16.76521526 10.81458648 19.85676691 8 23.375 C7.28837557 25.02297236 6.60968047 26.68665408 6 28.375 C9.04134491 26.70575929 9.04134491 26.70575929 10 24.375 C10.64453125 24.26285156 11.2890625 24.15070312 11.953125 24.03515625 C12.62859375 23.81730469 13.3040625 23.59945313 14 23.375 C15.1375213 21.29465706 15.1375213 21.29465706 15.75 18.8125 C15.99234375 17.98621094 16.2346875 17.15992187 16.484375 16.30859375 C16.65453125 15.67050781 16.8246875 15.03242188 17 14.375 C18.66611905 14.332279 20.33382885 14.33436168 22 14.375 C23 15.375 23 15.375 23.375 17.625 C23 20.375 23 20.375 20.5 22.6875 C17.91596675 25.46533575 17.60591731 25.84662956 17.5 29.375 C17.66818543 32.20261749 17.94912322 33.2944451 19.5 35.75 C21 38.375 21 38.375 21 48.375 C7.14 48.375 -6.72 48.375 -21 48.375 C-20.67 47.055 -20.34 45.735 -20 44.375 C-20 45.365 -20 46.355 -20 47.375 C-6.8 47.375 6.4 47.375 20 47.375 C16.67155518 37.13446785 16.67155518 37.13446785 13 31.375 C13.66 31.375 14.32 31.375 15 31.375 C13.6910428 28.25302522 13.6910428 28.25302522 11 26.375 C11 27.695 11 29.015 11 30.375 C10.05125 30.354375 9.1025 30.33375 8.125 30.3125 C5.09333717 30.14948174 5.09333717 30.14948174 3 31.375 C3.33 29.725 3.66 28.075 4 26.375 C3.05125 26.560625 2.1025 26.74625 1.125 26.9375 C-2 27.375 -2 27.375 -4 26.375 C-3.67 25.715 -3.34 25.055 -3 24.375 C-1.63875 24.49875 -1.63875 24.49875 -0.25 24.625 C3.04484485 24.67209715 3.04484485 24.67209715 5.25 22.625 C6.86380195 20.55011178 8.12176813 18.85001708 9 16.375 C8.67 15.385 8.34 14.395 8 13.375 C2.72 13.045 -2.56 12.715 -8 12.375 C-8 12.045 -8 11.715 -8 11.375 C-2.39 11.375 3.22 11.375 9 11.375 C8.01 8.735 7.02 6.095 6 3.375 C4.58566794 3.1513663 3.16832382 2.94673524 1.75 2.75 C0.96109375 2.63398437 0.1721875 2.51796875 -0.640625 2.3984375 C-3.38781679 2.37114752 -4.74137311 2.82962371 -7 4.375 C-8.29231642 7.41699472 -8.29231642 7.41699472 -9 10.375 C-9.33 10.375 -9.66 10.375 -10 10.375 C-10.36352763 3.95267846 -10.36352763 3.95267846 -8.92578125 1.66796875 C-5.99908995 -0.2970106 -3.48160679 -0.02176004 0 0 Z " fill="#100C0A" transform="translate(24,-0.375)"/>
<path d="M0 0 C0 3.63 0 7.26 0 11 C-0.99 11.495 -0.99 11.495 -2 12 C-2 13.98 -2 15.96 -2 18 C-5.63 18 -9.26 18 -13 18 C-13 17.01 -13 16.02 -13 15 C-10.36 15 -7.72 15 -5 15 C-6.12534105 13.64381501 -6.12534105 13.64381501 -9.0625 13.9375 C-10.5165625 13.9684375 -10.5165625 13.9684375 -12 14 C-11.46608326 9.46170772 -9.80333268 6.5820362 -7 3 C-2.8 0 -2.8 0 0 0 Z " fill="#4A5667" transform="translate(17,29)"/>
<path d="M0 0 C0.99 0.495 0.99 0.495 2 1 C2 1.66 2 2.32 2 3 C7.28 3 12.56 3 18 3 C18.33 2.01 18.66 1.02 19 0 C19.93616694 2.52481387 20.17818983 3.59474972 19.07421875 6.10546875 C18.61660156 6.79253906 18.15898438 7.47960937 17.6875 8.1875 C17.01267578 9.22970703 17.01267578 9.22970703 16.32421875 10.29296875 C15 12 15 12 13 13 C9.44856041 13.38602604 7.69042521 13.53261373 4.8125 11.3125 C1.69913611 7.34027711 0 5.16657442 0 0 Z " fill="#F6C9A3" transform="translate(14,12)"/>
<path d="M0 0 C2 2 2 2 3 9 C-2.61 9 -8.22 9 -14 9 C-14 2 -14 2 -12.0625 0 C-7.90565036 -1.35733866 -4.2206708 -1.10284718 0 0 Z " fill="#28364D" transform="translate(30,2)"/>
<path d="M0 0 C2.75 0.3125 2.75 0.3125 5 1 C5 3.31 5 5.62 5 8 C1.68929162 9.00109515 -1.30084769 9.10356134 -4.75 9.0625 C-5.73484375 9.05347656 -6.7196875 9.04445313 -7.734375 9.03515625 C-8.48203125 9.02355469 -9.2296875 9.01195312 -10 9 C-10 6.36 -10 3.72 -10 1 C-9.0925 1.391875 -8.185 1.78375 -7.25 2.1875 C-6.1775 2.455625 -5.105 2.72375 -4 3 C-2.63266972 2.04701223 -1.29735507 1.04625409 0 0 Z " fill="#374967" transform="translate(29,29)"/>
<path d="M0 0 C1.08152344 0.01417969 2.16304687 0.02835938 3.27734375 0.04296875 C4.90349609 0.05263672 4.90349609 0.05263672 6.5625 0.0625 C9.21484375 0.23046875 9.21484375 0.23046875 10.21484375 1.23046875 C10.21484375 3.21046875 10.21484375 5.19046875 10.21484375 7.23046875 C5.26484375 7.23046875 0.31484375 7.23046875 -4.78515625 7.23046875 C-4.78515625 0.39596665 -4.78515625 0.39596665 0 0 Z " fill="#808DA4" transform="translate(20.78515625,39.76953125)"/>
<path d="M0 0 C1.4606285 2.64738916 2 3.89448334 2 7 C-0.77627845 9.67345333 -3.2241456 10.47557578 -7 11 C-8.83832664 7.89782379 -9.47446226 5.60591321 -9 2 C-5.5647952 -0.29013653 -4.014669 -0.17842973 0 0 Z " fill="#0A0A0A" transform="translate(10,14)"/>
<path d="M0 0 C3.51097218 3.04284256 4.95461033 5.46997809 6 10 C6 12.64 6 15.28 6 18 C-7.86 18 -21.72 18 -36 18 C-35.67 16.68 -35.34 15.36 -35 14 C-35 14.99 -35 15.98 -35 17 C-21.8 17 -8.6 17 5 17 C1.67155518 6.75946785 1.67155518 6.75946785 -2 1 C-1.34 0.67 -0.68 0.34 0 0 Z " fill="#010101" transform="translate(39,30)"/>
<path d="M0 0 C1.85625 -0.01160156 1.85625 -0.01160156 3.75 -0.0234375 C7 0.375 7 0.375 8.92578125 1.63671875 C10.86214057 4.7701002 10.17699868 7.77602682 10 11.375 C10.99 11.705 11.98 12.035 13 12.375 C12.34 13.035 11.68 13.695 11 14.375 C10.01 14.045 9.02 13.715 8 13.375 C5.26710707 13.14702438 2.54957796 12.95831813 -0.1875 12.8125 C-0.93708984 12.76931641 -1.68667969 12.72613281 -2.45898438 12.68164062 C-4.30578375 12.57577315 -6.15286834 12.4749024 -8 12.375 C-8 12.045 -8 11.715 -8 11.375 C-2.39 11.375 3.22 11.375 9 11.375 C8.01 8.735 7.02 6.095 6 3.375 C4.58566794 3.1513663 3.16832382 2.94673524 1.75 2.75 C0.96109375 2.63398437 0.1721875 2.51796875 -0.640625 2.3984375 C-3.38781679 2.37114752 -4.74137311 2.82962371 -7 4.375 C-8.29231642 7.41699472 -8.29231642 7.41699472 -9 10.375 C-9.33 10.375 -9.66 10.375 -10 10.375 C-10.36352763 3.95267846 -10.36352763 3.95267846 -8.92578125 1.66796875 C-5.99908995 -0.2970106 -3.48160679 -0.02176004 0 0 Z " fill="#010203" transform="translate(24,-0.375)"/>
<path d="M0 0 C3.25094199 1.04494564 4.56873286 2.59135491 6.25 5.4375 C8 9 8 9 8 12 C6.02 12 4.04 12 2 12 C0.00214565 7.8794254 -0.17835515 4.54805635 0 0 Z " fill="#3B5073" transform="translate(35,31)"/>
<path d="M0 0 C0.66 0 1.32 0 2 0 C2.17835515 4.54805635 1.99785435 7.8794254 0 12 C-1.98 12 -3.96 12 -6 12 C-5.43958106 7.23643901 -3.41302403 3.41302403 0 0 Z " fill="#3B5073" transform="translate(11,31)"/>
<path d="M0 0 C5.28 0 10.56 0 16 0 C16 0.99 16 1.98 16 3 C10.72 3 5.44 3 0 3 C0 2.01 0 1.02 0 0 Z " fill="#384A65" transform="translate(16,12)"/>
<path d="M0 0 C2.475 0.495 2.475 0.495 5 1 C5 3.31 5 5.62 5 8 C3.35 8.33 1.7 8.66 0 9 C0 6.03 0 3.06 0 0 Z " fill="#404E61" transform="translate(29,29)"/>
<path d="M0 0 C2.64 0 5.28 0 8 0 C7.75 2.375 7.75 2.375 7 5 C4.9375 6.3125 4.9375 6.3125 3 7 C0 3.375 0 3.375 0 0 Z " fill="#F7D1AA" transform="translate(20,26)"/>
<path d="M0 0 C0.99 0.66 1.98 1.32 3 2 C2.625 3.9375 2.625 3.9375 2 6 C1.01 6.495 1.01 6.495 0 7 C0 6.34 0 5.68 0 5 C-2.97 5 -5.94 5 -9 5 C-9 4.34 -9 3.68 -9 3 C-6.03 3 -3.06 3 0 3 C0 2.01 0 1.02 0 0 Z " fill="#8B94A3" transform="translate(29,2)"/>
<path d="M0 0 C0.99 0 1.98 0 3 0 C4.4783226 2.95664519 4.06032783 5.74229737 4 9 C2.68 9 1.36 9 0 9 C0 6.03 0 3.06 0 0 Z " fill="#505B6D" transform="translate(31,38)"/>
<path d="M0 0 C0.66 0.33 1.32 0.66 2 1 C2 1.66 2 2.32 2 3 C-1.3 3 -4.6 3 -8 3 C-8 2.34 -8 1.68 -8 1 C-5.26094655 -0.36952673 -3.02912668 -0.12621361 0 0 Z " fill="#3E5478" transform="translate(27,1)"/>
<path d="M0 0 C0.99 0.33 1.98 0.66 3 1 C3.042721 2.66611905 3.04063832 4.33382885 3 6 C2 7 2 7 -0.5625 7.0625 C-1.7690625 7.0315625 -1.7690625 7.0315625 -3 7 C-3.33 5.68 -3.66 4.36 -4 3 C-3.67 3.66 -3.34 4.32 -3 5 C-1.68 4.01 -0.36 3.02 1 2 C0.67 1.34 0.34 0.68 0 0 Z " fill="#E5E5E5" transform="translate(7,16)"/>
<path d="M0 0 C0.66 1.32 1.32 2.64 2 4 C-3.61 4 -9.22 4 -15 4 C-15 3.67 -15 3.34 -15 3 C-13.62714844 2.92652344 -13.62714844 2.92652344 -12.2265625 2.8515625 C-11.03804687 2.77679688 -9.84953125 2.70203125 -8.625 2.625 C-7.44164062 2.55539062 -6.25828125 2.48578125 -5.0390625 2.4140625 C-1.89437681 2.29782654 -1.89437681 2.29782654 0 0 Z " fill="#384C6D" transform="translate(31,7)"/>
<path d="M0 0 C2.31 0 4.62 0 7 0 C7 0.99 7 1.98 7 3 C4.69 3 2.38 3 0 3 C0 2.01 0 1.02 0 0 Z " fill="#EAC8A2" transform="translate(37,44)"/>
<path d="M0 0 C2.31 0 4.62 0 7 0 C7 0.99 7 1.98 7 3 C4.69 3 2.38 3 0 3 C0 2.01 0 1.02 0 0 Z " fill="#EAC8A2" transform="translate(4,44)"/>
<path d="M0 0 C1.65 0 3.3 0 5 0 C3.25 4.875 3.25 4.875 1 6 C0.67 4.02 0.34 2.04 0 0 Z " fill="#696969" transform="translate(41,14)"/>
<path d="" fill="#000000" transform="translate(0,0)"/>
<path d="" fill="#000000" transform="translate(0,0)"/>
<path d="" fill="#000000" transform="translate(0,0)"/>
</svg>
