<?xml version="1.0" encoding="UTF-8"?>
<svg version="1.1" xmlns="http://www.w3.org/2000/svg" width="48" height="48">
<path d="M0 0 C0.495 0.309375 0.99 0.61875 1.5 0.9375 C3.9020476 1.95837023 5.44167574 2.17930729 8 2.375 C11.92250949 2.76797869 13.42769695 3.95134453 16 7 C16.99 7.33 17.98 7.66 19 8 C18.67 10.31 18.34 12.62 18 15 C16.35 15.33 14.7 15.66 13 16 C13 17.65 13 19.3 13 21 C13.66 21.33 14.32 21.66 15 22 C15 21.01 15 20.02 15 19 C15.66 19 16.32 19 17 19 C17 19.99 17 20.98 17 22 C18.32 22.33 19.64 22.66 21 23 C20.67 23.66 20.34 24.32 20 25 C19.01 24.67 18.02 24.34 17 24 C16.67 25.32 16.34 26.64 16 28 C15.505 26.02 15.505 26.02 15 24 C14.01 24.66 13.02 25.32 12 26 C11.56172799 27.90457929 11.56172799 27.90457929 11.6875 30 C11.69330078 31.051875 11.69330078 31.051875 11.69921875 32.125 C11.85087054 34.2416577 11.85087054 34.2416577 14 36 C13.67 37.32 13.34 38.64 13 40 C6.07 40 -0.86 40 -8 40 C-8.495 38.515 -8.495 38.515 -9 37 C-9.763125 37.061875 -10.52625 37.12375 -11.3125 37.1875 C-14 37 -14 37 -15.8125 36 C-17.68617002 32.84434523 -17.37560867 29.58272887 -17 26 C-16 23 -16 23 -15 21 C-15.99 21.33 -16.98 21.66 -18 22 C-18.5534764 19.92446352 -19 18.15634036 -19 16 C-17.68 16 -16.36 16 -15 16 C-15.165 15.2575 -15.33 14.515 -15.5 13.75 C-16 11 -16 11 -16 7 C-15.01 7 -14.02 7 -13 7 C-12.67 6.01 -12.34 5.02 -12 4 C-8.37 4 -4.74 4 -1 4 C-0.67 2.68 -0.34 1.36 0 0 Z M-15 27 C-15 27.66 -15 28.32 -15 29 C-14.34 28.67 -13.68 28.34 -13 28 C-13.66 27.67 -14.32 27.34 -15 27 Z " fill="#CDD2D1" transform="translate(23,4)"/>
<path d="M0 0 C0.495 0.309375 0.99 0.61875 1.5 0.9375 C3.9020476 1.95837023 5.44167574 2.17930729 8 2.375 C11.92250949 2.76797869 13.42769695 3.95134453 16 7 C16.99 7.33 17.98 7.66 19 8 C18.67 10.31 18.34 12.62 18 15 C16.35 15.33 14.7 15.66 13 16 C13 17.65 13 19.3 13 21 C13.66 21.33 14.32 21.66 15 22 C15 21.01 15 20.02 15 19 C15.66 19 16.32 19 17 19 C17 19.99 17 20.98 17 22 C18.32 22.33 19.64 22.66 21 23 C20.67 23.66 20.34 24.32 20 25 C19.01 24.67 18.02 24.34 17 24 C16.67 25.32 16.34 26.64 16 28 C15.505 26.02 15.505 26.02 15 24 C14.01 24.66 13.02 25.32 12 26 C11.56172799 27.90457929 11.56172799 27.90457929 11.6875 30 C11.69330078 31.051875 11.69330078 31.051875 11.69921875 32.125 C11.85087054 34.2416577 11.85087054 34.2416577 14 36 C13.67 37.32 13.34 38.64 13 40 C6.07 40 -0.86 40 -8 40 C-8.495 38.515 -8.495 38.515 -9 37 C-9.763125 37.061875 -10.52625 37.12375 -11.3125 37.1875 C-14 37 -14 37 -15.8125 36 C-17.73618446 32.76011038 -17.18282384 29.7174181 -17 26 C-16.34 26.33 -15.68 26.66 -15 27 C-15 27.66 -15 28.32 -15 29 C-13.02 29 -11.04 29 -9 29 C-8.67 28.01 -8.34 27.02 -8 26 C-7.67 26.66 -7.34 27.32 -7 28 C-8.25 30.5625 -8.25 30.5625 -10 33 C-11.485 33.495 -11.485 33.495 -13 34 C-7.17521449 37.03901852 -2.51791392 37.3540919 4 37 C3.34 36.67 2.68 36.34 2 36 C2.309375 35.46375 2.61875 34.9275 2.9375 34.375 C4.17827439 31.6015043 4.5909675 28.99957163 5 26 C2.64632287 25.3121764 2.64632287 25.3121764 0 25 C-0.99 25.66 -1.98 26.32 -3 27 C-2.34 25.68 -1.68 24.36 -1 23 C1.875 22.875 1.875 22.875 5 23 C7.62451617 25.62451617 7.5832868 27.4877828 8.125 31.125 C8.29257812 32.22070312 8.46015625 33.31640625 8.6328125 34.4453125 C8.75398438 35.28835937 8.87515625 36.13140625 9 37 C10.485 37.495 10.485 37.495 12 38 C12 37.34 12 36.68 12 36 C11.34 36 10.68 36 10 36 C9.96003906 35.03578125 9.92007813 34.0715625 9.87890625 33.078125 C9.55781806 29.19335428 9.14828957 25.72978265 8 22 C5.68794909 20.0747234 3.87865137 19.37140486 0.99609375 18.578125 C0.00802734 18.29195312 0.00802734 18.29195312 -1 18 C-1.33 17.34 -1.66 16.68 -2 16 C-1.34 15.01 -0.68 14.02 0 13 C0.20481978 8.69878471 0.16093816 5.14620773 -1 1 C-0.67 0.67 -0.34 0.34 0 0 Z " fill="#42211B" transform="translate(23,4)"/>
<path d="M0 0 C3.87385735 1.08271149 6.97602595 2.3057267 10 5 C11.20752421 9.6971096 11.22206441 14.17336481 11 19 C11.66 19 12.32 19 13 19 C13 19.66 13 20.32 13 21 C11.68 20.67 10.36 20.34 9 20 C8.80083984 18.71802734 8.80083984 18.71802734 8.59765625 17.41015625 C8.33275391 15.75306641 8.33275391 15.75306641 8.0625 14.0625 C7.88847656 12.96035156 7.71445312 11.85820313 7.53515625 10.72265625 C7.28154864 8.09573071 7.28154864 8.09573071 6 7 C4.00041636 6.95919217 1.99954746 6.95745644 0 7 C0.33 7 0.66 7 1 7 C2.66821323 7.32550502 4.33499557 7.65846063 6 8 C6.75 10.125 6.75 10.125 7 13 C5.0625 16.3125 5.0625 16.3125 3 19 C3.99 19.33 4.98 19.66 6 20 C6 20.33 6 20.66 6 21 C-1.57771707 21.50146657 -6.45783241 20.94998798 -13 17 C-12.38125 16.938125 -11.7625 16.87625 -11.125 16.8125 C-8.78235817 16.1993867 -8.78235817 16.1993867 -7.9765625 13.80078125 C-7.65429688 12.87652344 -7.33203125 11.95226562 -7 11 C-5.83025698 9.03896023 -4.62024401 7.10148617 -3.375 5.1875 C-2.74335938 4.21167969 -2.11171875 3.23585938 -1.4609375 2.23046875 C-0.73777344 1.12638672 -0.73777344 1.12638672 0 0 Z " fill="#EBE9D0" transform="translate(22,21)"/>
<path d="M0 0 C2.875 -0.125 2.875 -0.125 6 0 C8.62451617 2.62451617 8.5832868 4.4877828 9.125 8.125 C9.29257812 9.22070312 9.46015625 10.31640625 9.6328125 11.4453125 C9.75398438 12.28835937 9.87515625 13.13140625 10 14 C10.99 14.33 11.98 14.66 13 15 C13 14.34 13 13.68 13 13 C12.34 13 11.68 13 11 13 C11 11.02 11 9.04 11 7 C11.28875 7.61875 11.5775 8.2375 11.875 8.875 C12.93720042 11.13325765 12.93720042 11.13325765 15 13 C14.67 14.32 14.34 15.64 14 17 C7.07 17 0.14 17 -7 17 C-7.33 16.01 -7.66 15.02 -8 14 C-8.763125 14.061875 -9.52625 14.12375 -10.3125 14.1875 C-13 14 -13 14 -14.8125 13 C-16.73618446 9.76011038 -16.18282384 6.7174181 -16 3 C-15.01 3.495 -15.01 3.495 -14 4 C-14 4.66 -14 5.32 -14 6 C-12.02 6 -10.04 6 -8 6 C-7.67 5.01 -7.34 4.02 -7 3 C-6.67 3.66 -6.34 4.32 -6 5 C-7.25 7.5625 -7.25 7.5625 -9 10 C-9.99 10.33 -10.98 10.66 -12 11 C-6.17521449 14.03901852 -1.51791392 14.3540919 5 14 C4.34 13.67 3.68 13.34 3 13 C3.309375 12.46375 3.61875 11.9275 3.9375 11.375 C5.17827439 8.6015043 5.5909675 5.99957163 6 3 C3.64632287 2.3121764 3.64632287 2.3121764 1 2 C0.01 2.66 -0.98 3.32 -2 4 C-1.34 2.68 -0.68 1.36 0 0 Z " fill="#3A1A15" transform="translate(22,27)"/>
<path d="M0 0 C1.64846769 0.44876616 3.29373455 0.90930488 4.9375 1.375 C5.85402344 1.63023438 6.77054688 1.88546875 7.71484375 2.1484375 C10 3 10 3 11 5 C13.01669827 6.13350534 13.01669827 6.13350534 15 7 C14 10 14 10 11.75 11.25 C6.99748023 12.54614176 4.34266247 11.17133124 0 9 C0 6.03 0 3.06 0 0 Z " fill="#EAE8CF" transform="translate(25,7)"/>
<path d="M0 0 C0.495 0.309375 0.99 0.61875 1.5 0.9375 C3.9020476 1.95837023 5.44167574 2.17930729 8 2.375 C11.92250949 2.76797869 13.42769695 3.95134453 16 7 C16.99 7.33 17.98 7.66 19 8 C18.67 10.31 18.34 12.62 18 15 C17.01 15.33 16.02 15.66 15 16 C15.33 14.02 15.66 12.04 16 10 C14.68 9.34 13.36 8.68 12 8 C12 7.34 12 6.68 12 6 C10.700625 5.855625 9.40125 5.71125 8.0625 5.5625 C4.125 5.125 4.125 5.125 3 4 C2.67 6.64 2.34 9.28 2 12 C3.98 12.66 5.96 13.32 8 14 C5 15 5 15 2.89453125 14.44140625 C0.10566653 12.31956897 0.15425044 10.34274883 -0.3125 6.9375 C-0.47363281 5.85339844 -0.63476562 4.76929688 -0.80078125 3.65234375 C-0.86652344 2.77707031 -0.93226562 1.90179687 -1 1 C-0.67 0.67 -0.34 0.34 0 0 Z " fill="#40211B" transform="translate(23,4)"/>
<path d="M0 0 C1.65 0.33 3.3 0.66 5 1 C5 1.99 5 2.98 5 4 C5.66 4 6.32 4 7 4 C7 4.99 7 5.98 7 7 C6.34 7 5.68 7 5 7 C5 7.99 5 8.98 5 10 C3.68 10 2.36 10 1 10 C0.67 9.34 0.34 8.68 0 8 C-0.99 7.67 -1.98 7.34 -3 7 C-3 5.68 -3 4.36 -3 3 C-2.01 3 -1.02 3 0 3 C0 2.01 0 1.02 0 0 Z " fill="#351814" transform="translate(10,8)"/>
<path d="M0 0 C3.34373475 0.55728913 6.03312999 1.35173889 9 3 C9 4.65 9 6.3 9 8 C5.1936543 7.32829194 1.64793184 6.27253436 -2 5 C-1.34 3.35 -0.68 1.7 0 0 Z " fill="#B33221" transform="translate(23,17)"/>
<path d="M0 0 C2.9453125 1.05078125 2.9453125 1.05078125 6 3 C6.8046875 6.35546875 6.8046875 6.35546875 6.875 10.1875 C6.91367187 11.45980469 6.95234375 12.73210938 6.9921875 14.04296875 C6.99476562 15.01878906 6.99734375 15.99460937 7 17 C7.66 17 8.32 17 9 17 C9 17.66 9 18.32 9 19 C7.68 18.67 6.36 18.34 5 18 C4.87044922 16.73542969 4.87044922 16.73542969 4.73828125 15.4453125 C4.59777344 14.34960938 4.45726562 13.25390625 4.3125 12.125 C4.18488281 11.03445312 4.05726562 9.94390625 3.92578125 8.8203125 C3.28387243 5.7697488 3.28387243 5.7697488 0.41796875 4.6171875 C-0.37996094 4.41351562 -1.17789062 4.20984375 -2 4 C-1.34 3.67 -0.68 3.34 0 3 C0 2.01 0 1.02 0 0 Z " fill="#E0DCC6" transform="translate(26,23)"/>
<path d="M0 0 C0.763125 0.639375 1.52625 1.27875 2.3125 1.9375 C4.88246713 4.14232781 4.88246713 4.14232781 8 5 C7.67 7.31 7.34 9.62 7 12 C6.01 12.33 5.02 12.66 4 13 C4.33 11.02 4.66 9.04 5 7 C4.360625 6.773125 3.72125 6.54625 3.0625 6.3125 C1 5 1 5 0.25 2.375 C0.1675 1.59125 0.085 0.8075 0 0 Z " fill="#28120F" transform="translate(34,7)"/>
<path d="M0 0 C0.66 0 1.32 0 2 0 C2 0.99 2 1.98 2 3 C3.32 3.33 4.64 3.66 6 4 C5.67 4.66 5.34 5.32 5 6 C4.01 5.67 3.02 5.34 2 5 C1.67 6.32 1.34 7.64 1 9 C0.67 7.68 0.34 6.36 0 5 C-0.99 5 -1.98 5 -3 5 C-3 4.34 -3 3.68 -3 3 C-2.01 3 -1.02 3 0 3 C0 2.01 0 1.02 0 0 Z " fill="#381A14" transform="translate(38,23)"/>
<path d="M0 0 C2.875 -0.125 2.875 -0.125 6 0 C9.00617269 3.00617269 8.59585316 5.82381598 9 10 C7.35 10.33 5.7 10.66 4 11 C4.350625 10.443125 4.70125 9.88625 5.0625 9.3125 C6.21845993 6.46113217 5.80967438 4.91482778 5 2 C1.39007621 2.65585189 1.39007621 2.65585189 -2 4 C-1.34 2.68 -0.68 1.36 0 0 Z " fill="#4D2B25" transform="translate(22,27)"/>
<path d="M0 0 C2.475 0.99 2.475 0.99 5 2 C5 2.99 5 3.98 5 5 C4.34 5 3.68 5 3 5 C2.67 5.99 2.34 6.98 2 8 C1.34 7.67 0.68 7.34 0 7 C0 6.01 0 5.02 0 4 C-0.66 3.67 -1.32 3.34 -2 3 C-1.34 3 -0.68 3 0 3 C0 2.01 0 1.02 0 0 Z " fill="#9D3224" transform="translate(12,10)"/>
<path d="M0 0 C2.475 0.495 2.475 0.495 5 1 C5 2.32 5 3.64 5 5 C3.68 5.33 2.36 5.66 1 6 C0.4465236 3.92446352 0 2.15634036 0 0 Z " fill="#341A16" transform="translate(4,20)"/>
<path d="M0 0 C0.66 0 1.32 0 2 0 C1.4140625 6.15234375 1.4140625 6.15234375 1 8 C0.01 8.495 0.01 8.495 -1 9 C-1.09765625 2.84765625 -1.09765625 2.84765625 -1 1 C-0.67 0.67 -0.34 0.34 0 0 Z " fill="#B6B6B6" transform="translate(34,20)"/>
<path d="M0 0 C0.33 1.32 0.66 2.64 1 4 C0.01 3.34 -0.98 2.68 -2 2 C-1.34 1.34 -0.68 0.68 0 0 Z " fill="#1C0B0A" transform="translate(8,4)"/>
<path d="" fill="#000000" transform="translate(0,0)"/>
<path d="" fill="#000000" transform="translate(0,0)"/>
<path d="" fill="#000000" transform="translate(0,0)"/>
<path d="" fill="#000000" transform="translate(0,0)"/>
<path d="" fill="#000000" transform="translate(0,0)"/>
<path d="" fill="#000000" transform="translate(0,0)"/>
<path d="" fill="#000000" transform="translate(0,0)"/>
<path d="" fill="#000000" transform="translate(0,0)"/>
</svg>
