<svg width="24" height="24" viewBox="0 0 24 24" fill="none" xmlns="http://www.w3.org/2000/svg">
<g clip-path="url(#clip0_2334_6290)">
<path d="M12.2812 0.28125C5.81893 0.28125 0.5625 5.53768 0.5625 12C0.5625 18.4623 5.81893 23.7188 12.2812 23.7188C18.7436 23.7188 24 18.4623 24 12C24 5.53768 18.7436 0.28125 12.2812 0.28125ZM12.9906 16.5541C12.9906 16.9514 12.6714 17.2634 12.2812 17.2634C11.8911 17.2634 11.5719 16.9514 11.5719 16.5541V16.2136C11.5719 15.8235 11.8911 15.5042 12.2812 15.5042C12.6714 15.5042 12.9906 15.8235 12.9906 16.2136V16.5541ZM13.4092 12.8441C13.1538 12.9434 12.9835 13.1633 12.9835 13.4116C12.9835 13.8018 12.6643 14.1209 12.2742 14.1209C11.884 14.1209 11.5648 13.8018 11.5648 13.4116C11.5648 12.5675 12.0897 11.8297 12.9055 11.5176C13.5795 11.2622 14.0193 10.6167 14.0193 9.88608C14.0193 8.92837 13.239 8.15516 12.2742 8.15516C11.3166 8.15516 10.5434 8.92837 10.5434 9.88608C10.5434 10.2833 10.2242 10.5954 9.83407 10.5954C9.43687 10.5954 9.12473 10.2833 9.12473 9.88608C9.12473 8.14815 10.5363 6.73648 12.2743 6.73648C14.0193 6.73648 15.4381 8.14815 15.4381 9.88608C15.4379 11.1913 14.6222 12.3831 13.4092 12.8441Z" fill="black"/>
</g>
<defs>
<clipPath id="clip0_2334_6290">
<rect width="24" height="24" fill="white"/>
</clipPath>
</defs>
</svg>
