<svg width="20" height="20" viewBox="0 0 20 20" fill="none" xmlns="http://www.w3.org/2000/svg">
<path d="M10.0039 0.833008C12.3051 0.833008 14.1706 2.69849 14.1706 4.99967V6.66634H16.6706C17.1308 6.66634 17.5039 7.03944 17.5039 7.49967V17.4997C17.5039 17.9599 17.1308 18.333 16.6706 18.333H3.33724C2.87701 18.333 2.50391 17.9599 2.50391 17.4997V7.49967C2.50391 7.03944 2.87701 6.66634 3.33724 6.66634H5.83724V4.99967C5.83724 2.69849 7.70272 0.833008 10.0039 0.833008ZM14.1706 9.16634H12.5039V9.99968C12.5039 10.4599 12.877 10.833 13.3373 10.833C13.7646 10.833 14.1168 10.5113 14.165 10.0968L14.1706 9.99968V9.16634ZM7.50391 9.16634H5.83724V9.99968C5.83724 10.4599 6.21034 10.833 6.67057 10.833C7.09794 10.833 7.45016 10.5113 7.4983 10.0968L7.50391 9.99968V9.16634ZM10.0039 2.49967C8.67251 2.49967 7.58419 3.54044 7.50816 4.85278L7.50391 4.99967V6.66634H12.5039V4.99967C12.5039 3.66827 11.4632 2.57995 10.1508 2.50392L10.0039 2.49967Z" fill="#C6E4B2"/>
</svg>
