<svg width="20" height="20" viewBox="0 0 20 20" fill="none" xmlns="http://www.w3.org/2000/svg">
<g clip-path="url(#clip0_2334_6270)">
<path d="M10.1 0C4.3 0 0 2.3 0 5V5.7C0 6.4 0.6 6.9 1.3 7H3.9C4.8 7 5.3 5.9 5 5C4.5 4.3 5 3.3 5.8 3.1C8.6 2.5 11.4 2.5 14.3 3.1C15.2 3.3 15.6 4.2 15.1 5C14.8 5.9 15.3 6.9 16.2 7H18.8C19.5 7 20.1 6.4 20.1 5.7V5C20 2.2 15.6 0 10.1 0Z" fill="#83C557"/>
<path d="M10.1 0C4.3 0 0 2.3 0 5V5.7C0 6.4 0.6 6.9 1.3 7H3.9C4.8 7 5.3 5.9 5 5C4.5 4.3 5 3.3 5.8 3.1C8.6 2.5 11.4 2.5 14.3 3.1C15.2 3.3 15.6 4.2 15.1 5C14.8 5.9 15.3 6.9 16.2 7H18.8C19.5 7 20.1 6.4 20.1 5.7V5C20 2.2 15.6 0 10.1 0Z" fill="black" fill-opacity="0.2"/>
<path d="M15.3 7.5C15.1 7.2 14.8 7 14.4 7H13V5.5C13 5.2 12.8 5 12.5 5H11.5C11.2 5 11 5.2 11 5.5V7H9V5.5C9 5.2 8.8 5 8.5 5H7.5C7.2 5 7 5.2 7 5.5V7H5.6C5.2 7 4.9 7.2 4.7 7.5C3.2 10.1 1 13.4 1 19C1 19.5 1.4 20 2 20H18C18.6 20 19 19.5 19 19C19 13.4 16.7 9.9 15.3 7.5ZM10 18C7.8 18 6 16.2 6 14C6 11.8 7.8 10 10 10C12.2 10 14 11.8 14 14C14 16.2 12.2 18 10 18Z" fill="#83C557"/>
<path d="M15.3 7.5C15.1 7.2 14.8 7 14.4 7H13V5.5C13 5.2 12.8 5 12.5 5H11.5C11.2 5 11 5.2 11 5.5V7H9V5.5C9 5.2 8.8 5 8.5 5H7.5C7.2 5 7 5.2 7 5.5V7H5.6C5.2 7 4.9 7.2 4.7 7.5C3.2 10.1 1 13.4 1 19C1 19.5 1.4 20 2 20H18C18.6 20 19 19.5 19 19C19 13.4 16.7 9.9 15.3 7.5ZM10 18C7.8 18 6 16.2 6 14C6 11.8 7.8 10 10 10C12.2 10 14 11.8 14 14C14 16.2 12.2 18 10 18Z" fill="black" fill-opacity="0.2"/>
<path d="M10 16.0039C11.1046 16.0039 12 15.1085 12 14.0039C12 12.8993 11.1046 12.0039 10 12.0039C8.89543 12.0039 8 12.8993 8 14.0039C8 15.1085 8.89543 16.0039 10 16.0039Z" fill="#83C557"/>
<path d="M10 16.0039C11.1046 16.0039 12 15.1085 12 14.0039C12 12.8993 11.1046 12.0039 10 12.0039C8.89543 12.0039 8 12.8993 8 14.0039C8 15.1085 8.89543 16.0039 10 16.0039Z" fill="black" fill-opacity="0.2"/>
</g>
<defs>
<clipPath id="clip0_2334_6270">
<rect width="20" height="20" fill="white"/>
</clipPath>
</defs>
</svg>
