<svg width="22" height="24" viewBox="0 0 22 24" fill="none" xmlns="http://www.w3.org/2000/svg">
<path d="M18.7041 2.77688L21.2231 5.29594C21.5892 5.66208 21.5892 6.25566 21.2231 6.62175C20.857 6.98789 20.2634 6.98784 19.8973 6.62175L19.3007 6.02513L18.0772 7.24866C19.6052 9.08034 20.4375 11.3667 20.4375 13.7813C20.4375 14.1992 20.4125 14.6112 20.3638 15.0159C20.2645 15.8423 19.2445 15.9998 18.7823 15.3075L18.7002 15.1845C18.5657 14.983 18.5113 14.7397 18.532 14.4983C18.5522 14.2619 18.5625 14.0228 18.5625 13.7813C18.5625 9.18052 14.8195 5.4375 10.2188 5.4375C5.61802 5.4375 1.875 9.18052 1.875 13.7813C1.875 18.382 5.61802 22.125 10.2188 22.125C10.9337 22.125 11.6279 22.0346 12.2906 21.8647C12.7171 21.7553 13.1778 21.9027 13.4222 22.2688C13.7599 22.7747 13.5482 23.4656 12.9622 23.6283C12.0893 23.8705 11.1693 24 10.2188 24C4.57036 24 0 19.4288 0 13.7813C0 8.38913 4.13794 4.07011 9.28125 3.6053V1.875H8.4375C7.91972 1.875 7.5 1.45528 7.5 0.9375C7.5 0.419719 7.91972 0 8.4375 0H12C12.5178 0 12.9375 0.419719 12.9375 0.9375C12.9375 1.45528 12.5178 1.875 12 1.875H11.1563V3.6053C13.222 3.792 15.1586 4.59412 16.7513 5.92284L17.9749 4.69931L17.3783 4.10269C17.0121 3.73659 17.0122 3.14302 17.3783 2.77688C17.7443 2.41073 18.3379 2.41073 18.7041 2.77688Z" fill="black"/>
<path d="M14.1526 14.7188C14.6704 14.7188 15.0901 14.2991 15.0901 13.7813C15.0901 13.2635 14.6704 12.8438 14.1526 12.8438H11.1562V8.26526C11.1562 7.74748 10.7365 7.32776 10.2188 7.32776C9.70097 7.32776 9.28125 7.74748 9.28125 8.26526V13.7813C9.28125 14.2991 9.70097 14.7188 10.2188 14.7188H14.1526Z" fill="black"/>
</svg>
