<svg width="24" height="24" viewBox="0 0 24 24" fill="none" xmlns="http://www.w3.org/2000/svg">
<g clip-path="url(#clip0_2334_6276)">
<path fill-rule="evenodd" clip-rule="evenodd" d="M12 0C18.6277 0 24 5.37234 24 12C24 18.6277 18.6277 24 12 24C5.37234 24 0 18.6277 0 12C0 5.37234 5.37234 0 12 0Z" fill="#83C557"/>
<path fill-rule="evenodd" clip-rule="evenodd" d="M12 0C18.6277 0 24 5.37234 24 12C24 18.6277 18.6277 24 12 24C5.37234 24 0 18.6277 0 12C0 5.37234 5.37234 0 12 0Z" fill="black" fill-opacity="0.2"/>
<path d="M5.50391 8.83V13.5869C5.50859 14.6627 6.38703 15.528 7.45813 15.5238H14.3923C14.5897 15.5238 14.7481 15.3653 14.7481 15.1727V10.4153C14.7439 9.34 13.8655 8.47422 12.7939 8.47844H5.85969C5.66281 8.47844 5.50391 8.63688 5.50391 8.83ZM15.1897 10.6853L18.0523 8.59422C18.3008 8.38844 18.4939 8.44 18.4939 8.81266V15.1895C18.4939 15.6138 18.2581 15.5627 18.0523 15.4084L15.1897 13.3211V10.6853Z" fill="white"/>
</g>
<defs>
<clipPath id="clip0_2334_6276">
<rect width="24" height="24" fill="white"/>
</clipPath>
</defs>
</svg>
